<svg id="previews" width="770" height="250" version="1.1" xmlns="http://www.w3.org/2000/svg">
  <rect id="background" x="-2.5e-7" y="-1.3549e-6" width="770" height="250" fill="#1a1a1c"/>
  <rect id="color00" x="30" y="30" width="80" height="80" fill="#222224"/>
  <rect id="color08" x="30" y="140" width="80" height="80" fill="#474749"/>
  <rect id="color01" x="120" y="30" width="80" height="80" fill="#fe8d6f"/>
  <rect id="color09" x="120" y="140" width="80" height="80" fill="#fead98"/>
  <rect id="color02" x="210" y="30" width="80" height="80" fill="#dfdd6c"/>
  <rect id="color10" x="210" y="140" width="80" height="80" fill="#efeda5"/>
  <rect id="color03" x="300" y="30" width="80" height="80" fill="#fdc453"/>
  <rect id="color11" x="300" y="140" width="80" height="80" fill="#fdd992"/>
  <rect id="color04" x="390" y="30" width="80" height="80" fill="#77dbe0"/>
  <rect id="color12" x="390" y="140" width="80" height="80" fill="#aadde0"/>
  <rect id="color05" x="480" y="30" width="80" height="80" fill="#f886a8"/>
  <rect id="color13" x="480" y="140" width="80" height="80" fill="#f8acc2"/>
  <rect id="color06" x="570" y="30" width="80" height="80" fill="#5bc8a3"/>
  <rect id="color14" x="570" y="140" width="80" height="80" fill="#8fc8b5"/>
  <rect id="color07" x="660" y="30" width="80" height="80" fill="#c5c7c8"/>
  <rect id="color15" x="660" y="140" width="80" height="80" fill="#ffffff"/>
</svg>