<svg id="previews" width="770" height="250" version="1.1" xmlns="http://www.w3.org/2000/svg">
  <rect id="background" x="-2.5e-7" y="-1.3549e-6" width="770" height="250" fill="#141021"/>
  <rect id="color00" x="30" y="30" width="80" height="80" fill="#4f4858"/>
  <rect id="color08" x="30" y="140" width="80" height="80" fill="#545d67"/>
  <rect id="color01" x="120" y="30" width="80" height="80" fill="#c05c47"/>
  <rect id="color09" x="120" y="140" width="80" height="80" fill="#c16772"/>
  <rect id="color02" x="210" y="30" width="80" height="80" fill="#428e8e"/>
  <rect id="color10" x="210" y="140" width="80" height="80" fill="#afda6e"/>
  <rect id="color03" x="300" y="30" width="80" height="80" fill="#e4b226"/>
  <rect id="color11" x="300" y="140" width="80" height="80" fill="#ebcf1a"/>
  <rect id="color04" x="390" y="30" width="80" height="80" fill="#4457a3"/>
  <rect id="color12" x="390" y="140" width="80" height="80" fill="#4880a5"/>
  <rect id="color05" x="480" y="30" width="80" height="80" fill="#903a62"/>
  <rect id="color13" x="480" y="140" width="80" height="80" fill="#9568a1"/>
  <rect id="color06" x="570" y="30" width="80" height="80" fill="#7aa1dc"/>
  <rect id="color14" x="570" y="140" width="80" height="80" fill="#abbcda"/>
  <rect id="color07" x="660" y="30" width="80" height="80" fill="#c4b7c5"/>
  <rect id="color15" x="660" y="140" width="80" height="80" fill="#ffeefc"/>
</svg>