<svg id="previews" width="770" height="250" version="1.1" xmlns="http://www.w3.org/2000/svg">
  <rect id="background" x="-2.5e-7" y="-1.3549e-6" width="770" height="250" fill="#263238"/>
  <rect id="color00" x="30" y="30" width="80" height="80" fill="#384b53"/>
  <rect id="color08" x="30" y="140" width="80" height="80" fill="#1a2327"/>
  <rect id="color01" x="120" y="30" width="80" height="80" fill="#f07178"/>
  <rect id="color09" x="120" y="140" width="80" height="80" fill="#ff5c38"/>
  <rect id="color02" x="210" y="30" width="80" height="80" fill="#14a058"/>
  <rect id="color10" x="210" y="140" width="80" height="80" fill="#a0e250"/>
  <rect id="color03" x="300" y="30" width="80" height="80" fill="#f2c024"/>
  <rect id="color11" x="300" y="140" width="80" height="80" fill="#eceb4d"/>
  <rect id="color04" x="390" y="30" width="80" height="80" fill="#556ea6"/>
  <rect id="color12" x="390" y="140" width="80" height="80" fill="#82aaff"/>
  <rect id="color05" x="480" y="30" width="80" height="80" fill="#9069a8"/>
  <rect id="color13" x="480" y="140" width="80" height="80" fill="#c792ea"/>
  <rect id="color06" x="570" y="30" width="80" height="80" fill="#89ddff"/>
  <rect id="color14" x="570" y="140" width="80" height="80" fill="#90eecb"/>
  <rect id="color07" x="660" y="30" width="80" height="80" fill="#e7e7e7"/>
  <rect id="color15" x="660" y="140" width="80" height="80" fill="#e7e7e7"/>
</svg>