<svg id="previews" width="770" height="250" version="1.1" xmlns="http://www.w3.org/2000/svg">
  <rect id="background" x="-2.5e-7" y="-1.3549e-6" width="770" height="250" fill="#2d2d2d"/>
  <rect id="color00" x="30" y="30" width="80" height="80" fill="#252525"/>
  <rect id="color08" x="30" y="140" width="80" height="80" fill="#515151"/>
  <rect id="color01" x="120" y="30" width="80" height="80" fill="#ed333b"/>
  <rect id="color09" x="120" y="140" width="80" height="80" fill="#f66151"/>
  <rect id="color02" x="210" y="30" width="80" height="80" fill="#4e9a06"/>
  <rect id="color10" x="210" y="140" width="80" height="80" fill="#83b850"/>
  <rect id="color03" x="300" y="30" width="80" height="80" fill="#f57900"/>
  <rect id="color11" x="300" y="140" width="80" height="80" fill="#ffbe6f"/>
  <rect id="color04" x="390" y="30" width="80" height="80" fill="#15539e"/>
  <rect id="color12" x="390" y="140" width="80" height="80" fill="#99c1f1"/>
  <rect id="color05" x="480" y="30" width="80" height="80" fill="#9141ac"/>
  <rect id="color13" x="480" y="140" width="80" height="80" fill="#dc8add"/>
  <rect id="color06" x="570" y="30" width="80" height="80" fill="#33d18c"/>
  <rect id="color14" x="570" y="140" width="80" height="80" fill="#8ff0c6"/>
  <rect id="color07" x="660" y="30" width="80" height="80" fill="#919190"/>
  <rect id="color15" x="660" y="140" width="80" height="80" fill="#ffffff"/>
</svg>