<svg id="previews" width="770" height="250" version="1.1" xmlns="http://www.w3.org/2000/svg">
  <rect id="background" x="-2.5e-7" y="-1.3549e-6" width="770" height="250" fill="#201e1a"/>
  <rect id="color00" x="30" y="30" width="80" height="80" fill="#272520"/>
  <rect id="color08" x="30" y="140" width="80" height="80" fill="#5d5d5d"/>
  <rect id="color01" x="120" y="30" width="80" height="80" fill="#cf354b"/>
  <rect id="color09" x="120" y="140" width="80" height="80" fill="#ff5f57"/>
  <rect id="color02" x="210" y="30" width="80" height="80" fill="#9cd26f"/>
  <rect id="color10" x="210" y="140" width="80" height="80" fill="#b9f984"/>
  <rect id="color03" x="300" y="30" width="80" height="80" fill="#eb9c67"/>
  <rect id="color11" x="300" y="140" width="80" height="80" fill="#ebb28c"/>
  <rect id="color04" x="390" y="30" width="80" height="80" fill="#668dac"/>
  <rect id="color12" x="390" y="140" width="80" height="80" fill="#86b1d3"/>
  <rect id="color05" x="480" y="30" width="80" height="80" fill="#8a588a"/>
  <rect id="color13" x="480" y="140" width="80" height="80" fill="#b27cb2"/>
  <rect id="color06" x="570" y="30" width="80" height="80" fill="#288293"/>
  <rect id="color14" x="570" y="140" width="80" height="80" fill="#57a8b7"/>
  <rect id="color07" x="660" y="30" width="80" height="80" fill="#a6a6a6"/>
  <rect id="color15" x="660" y="140" width="80" height="80" fill="#f0f0f0"/>
</svg>