<svg id="previews" width="770" height="250" version="1.1" xmlns="http://www.w3.org/2000/svg">
  <rect id="background" x="-2.5e-7" y="-1.3549e-6" width="770" height="250" fill="#d5c7ad"/>
  <rect id="color00" x="30" y="30" width="80" height="80" fill="#c4b08b"/>
  <rect id="color08" x="30" y="140" width="80" height="80" fill="#bba47a"/>
  <rect id="color01" x="120" y="30" width="80" height="80" fill="#725353"/>
  <rect id="color09" x="120" y="140" width="80" height="80" fill="#b37575"/>
  <rect id="color02" x="210" y="30" width="80" height="80" fill="#6b7253"/>
  <rect id="color10" x="210" y="140" width="80" height="80" fill="#a7b375"/>
  <rect id="color03" x="300" y="30" width="80" height="80" fill="#8a753a"/>
  <rect id="color11" x="300" y="140" width="80" height="80" fill="#b3a475"/>
  <rect id="color04" x="390" y="30" width="80" height="80" fill="#536372"/>
  <rect id="color12" x="390" y="140" width="80" height="80" fill="#7597b3"/>
  <rect id="color05" x="480" y="30" width="80" height="80" fill="#72536f"/>
  <rect id="color13" x="480" y="140" width="80" height="80" fill="#b375ae"/>
  <rect id="color06" x="570" y="30" width="80" height="80" fill="#32726c"/>
  <rect id="color14" x="570" y="140" width="80" height="80" fill="#53b3a8"/>
  <rect id="color07" x="660" y="30" width="80" height="80" fill="#1d1d1a"/>
  <rect id="color15" x="660" y="140" width="80" height="80" fill="#484741"/>
</svg>