<svg id="previews" width="770" height="250" version="1.1" xmlns="http://www.w3.org/2000/svg">
  <rect id="background" x="-2.5e-7" y="-1.3549e-6" width="770" height="250" fill="#23232f"/>
  <rect id="color00" x="30" y="30" width="80" height="80" fill="#242d35"/>
  <rect id="color08" x="30" y="140" width="80" height="80" fill="#526170"/>
  <rect id="color01" x="120" y="30" width="80" height="80" fill="#fb6396"/>
  <rect id="color09" x="120" y="140" width="80" height="80" fill="#f92d72"/>
  <rect id="color02" x="210" y="30" width="80" height="80" fill="#94cf95"/>
  <rect id="color10" x="210" y="140" width="80" height="80" fill="#6ccb6e"/>
  <rect id="color03" x="300" y="30" width="80" height="80" fill="#f692b2"/>
  <rect id="color11" x="300" y="140" width="80" height="80" fill="#f26190"/>
  <rect id="color04" x="390" y="30" width="80" height="80" fill="#6ec1d6"/>
  <rect id="color12" x="390" y="140" width="80" height="80" fill="#4cb9d6"/>
  <rect id="color05" x="480" y="30" width="80" height="80" fill="#cd84c8"/>
  <rect id="color13" x="480" y="140" width="80" height="80" fill="#c269bc"/>
  <rect id="color06" x="570" y="30" width="80" height="80" fill="#7fe4d2"/>
  <rect id="color14" x="570" y="140" width="80" height="80" fill="#58d6bf"/>
  <rect id="color07" x="660" y="30" width="80" height="80" fill="#ffffff"/>
  <rect id="color15" x="660" y="140" width="80" height="80" fill="#f4f5f2"/>
</svg>