<svg id="previews" width="770" height="250" version="1.1" xmlns="http://www.w3.org/2000/svg">
  <rect id="background" x="-2.5e-7" y="-1.3549e-6" width="770" height="250" fill="#f7efea"/>
  <rect id="color00" x="30" y="30" width="80" height="80" fill="#5f4639"/>
  <rect id="color08" x="30" y="140" width="80" height="80" fill="#785543"/>
  <rect id="color01" x="120" y="30" width="80" height="80" fill="#c85b6e"/>
  <rect id="color09" x="120" y="140" width="80" height="80" fill="#f57087"/>
  <rect id="color02" x="210" y="30" width="80" height="80" fill="#80733a"/>
  <rect id="color10" x="210" y="140" width="80" height="80" fill="#b2a151"/>
  <rect id="color03" x="300" y="30" width="80" height="80" fill="#c87f5b"/>
  <rect id="color11" x="300" y="140" width="80" height="80" fill="#ef9e77"/>
  <rect id="color04" x="390" y="30" width="80" height="80" fill="#357593"/>
  <rect id="color12" x="390" y="140" width="80" height="80" fill="#5ba5c8"/>
  <rect id="color05" x="480" y="30" width="80" height="80" fill="#802f91"/>
  <rect id="color13" x="480" y="140" width="80" height="80" fill="#b55bc8"/>
  <rect id="color06" x="570" y="30" width="80" height="80" fill="#394994"/>
  <rect id="color14" x="570" y="140" width="80" height="80" fill="#5b6ec8"/>
  <rect id="color07" x="660" y="30" width="80" height="80" fill="#cdd4da"/>
  <rect id="color15" x="660" y="140" width="80" height="80" fill="#f3f7f3"/>
</svg>