<svg id="previews" width="770" height="250" version="1.1" xmlns="http://www.w3.org/2000/svg">
  <rect id="background" x="-2.5e-7" y="-1.3549e-6" width="770" height="250" fill="#383c4a"/>
  <rect id="color00" x="30" y="30" width="80" height="80" fill="#30333f"/>
  <rect id="color08" x="30" y="140" width="80" height="80" fill="#595f75"/>
  <rect id="color01" x="120" y="30" width="80" height="80" fill="#9a4138"/>
  <rect id="color09" x="120" y="140" width="80" height="80" fill="#e7766b"/>
  <rect id="color02" x="210" y="30" width="80" height="80" fill="#4bec90"/>
  <rect id="color10" x="210" y="140" width="80" height="80" fill="#3cbf75"/>
  <rect id="color03" x="300" y="30" width="80" height="80" fill="#d8d782"/>
  <rect id="color11" x="300" y="140" width="80" height="80" fill="#cfcd63"/>
  <rect id="color04" x="390" y="30" width="80" height="80" fill="#5294e2"/>
  <rect id="color12" x="390" y="140" width="80" height="80" fill="#579cef"/>
  <rect id="color05" x="480" y="30" width="80" height="80" fill="#ce50dd"/>
  <rect id="color13" x="480" y="140" width="80" height="80" fill="#e7766b"/>
  <rect id="color06" x="570" y="30" width="80" height="80" fill="#6be5e7"/>
  <rect id="color14" x="570" y="140" width="80" height="80" fill="#90fdff"/>
  <rect id="color07" x="660" y="30" width="80" height="80" fill="#cccccc"/>
  <rect id="color15" x="660" y="140" width="80" height="80" fill="#ffffff"/>
</svg>