<svg id="previews" width="770" height="250" version="1.1" xmlns="http://www.w3.org/2000/svg">
  <rect id="background" x="-2.5e-7" y="-1.3549e-6" width="770" height="250" fill="#07090f"/>
  <rect id="color00" x="30" y="30" width="80" height="80" fill="#000000"/>
  <rect id="color08" x="30" y="140" width="80" height="80" fill="#262e47"/>
  <rect id="color01" x="120" y="30" width="80" height="80" fill="#dd5073"/>
  <rect id="color09" x="120" y="140" width="80" height="80" fill="#ff5370"/>
  <rect id="color02" x="210" y="30" width="80" height="80" fill="#63eb90"/>
  <rect id="color10" x="210" y="140" width="80" height="80" fill="#c3e88d"/>
  <rect id="color03" x="300" y="30" width="80" height="80" fill="#ffcb6b"/>
  <rect id="color11" x="300" y="140" width="80" height="80" fill="#e6db7f"/>
  <rect id="color04" x="390" y="30" width="80" height="80" fill="#576daf"/>
  <rect id="color12" x="390" y="140" width="80" height="80" fill="#82aaff"/>
  <rect id="color05" x="480" y="30" width="80" height="80" fill="#c778db"/>
  <rect id="color13" x="480" y="140" width="80" height="80" fill="#c792ea"/>
  <rect id="color06" x="570" y="30" width="80" height="80" fill="#c17e70"/>
  <rect id="color14" x="570" y="140" width="80" height="80" fill="#f78c6c"/>
  <rect id="color07" x="660" y="30" width="80" height="80" fill="#eeffff"/>
  <rect id="color15" x="660" y="140" width="80" height="80" fill="#ffffff"/>
</svg>