<svg id="previews" width="770" height="250" version="1.1" xmlns="http://www.w3.org/2000/svg">
  <rect id="background" x="-2.5e-7" y="-1.3549e-6" width="770" height="250" fill="#122021"/>
  <rect id="color00" x="30" y="30" width="80" height="80" fill="#34363c"/>
  <rect id="color08" x="30" y="140" width="80" height="80" fill="#5b626c"/>
  <rect id="color01" x="120" y="30" width="80" height="80" fill="#a04141"/>
  <rect id="color09" x="120" y="140" width="80" height="80" fill="#ca5252"/>
  <rect id="color02" x="210" y="30" width="80" height="80" fill="#667451"/>
  <rect id="color10" x="210" y="140" width="80" height="80" fill="#8ea66b"/>
  <rect id="color03" x="300" y="30" width="80" height="80" fill="#b56d3a"/>
  <rect id="color11" x="300" y="140" width="80" height="80" fill="#f0c674"/>
  <rect id="color04" x="390" y="30" width="80" height="80" fill="#245075"/>
  <rect id="color12" x="390" y="140" width="80" height="80" fill="#4989bd"/>
  <rect id="color05" x="480" y="30" width="80" height="80" fill="#a04e9c"/>
  <rect id="color13" x="480" y="140" width="80" height="80" fill="#b294bb"/>
  <rect id="color06" x="570" y="30" width="80" height="80" fill="#28756b"/>
  <rect id="color14" x="570" y="140" width="80" height="80" fill="#56a096"/>
  <rect id="color07" x="660" y="30" width="80" height="80" fill="#c6ffe6"/>
  <rect id="color15" x="660" y="140" width="80" height="80" fill="#d8dbcb"/>
</svg>