<svg id="previews" width="770" height="250" version="1.1" xmlns="http://www.w3.org/2000/svg">
  <rect id="background" x="-2.5e-7" y="-1.3549e-6" width="770" height="250" fill="#1b1d20"/>
  <rect id="color00" x="30" y="30" width="80" height="80" fill="#323232"/>
  <rect id="color08" x="30" y="140" width="80" height="80" fill="#424242"/>
  <rect id="color01" x="120" y="30" width="80" height="80" fill="#823a45"/>
  <rect id="color09" x="120" y="140" width="80" height="80" fill="#82444c"/>
  <rect id="color02" x="210" y="30" width="80" height="80" fill="#878c49"/>
  <rect id="color10" x="210" y="140" width="80" height="80" fill="#a5ac69"/>
  <rect id="color03" x="300" y="30" width="80" height="80" fill="#ba954a"/>
  <rect id="color11" x="300" y="140" width="80" height="80" fill="#e3c55b"/>
  <rect id="color04" x="390" y="30" width="80" height="80" fill="#335f79"/>
  <rect id="color12" x="390" y="140" width="80" height="80" fill="#548098"/>
  <rect id="color05" x="480" y="30" width="80" height="80" fill="#7f3a60"/>
  <rect id="color13" x="480" y="140" width="80" height="80" fill="#7f4766"/>
  <rect id="color06" x="570" y="30" width="80" height="80" fill="#1e4e51"/>
  <rect id="color14" x="570" y="140" width="80" height="80" fill="#2d5d5f"/>
  <rect id="color07" x="660" y="30" width="80" height="80" fill="#b3b3b3"/>
  <rect id="color15" x="660" y="140" width="80" height="80" fill="#b0b0b0"/>
</svg>