<svg id="previews" width="770" height="250" version="1.1" xmlns="http://www.w3.org/2000/svg">
  <rect id="background" x="-2.5e-7" y="-1.3549e-6" width="770" height="250" fill="#eff1f5"/>
  <rect id="color00" x="30" y="30" width="80" height="80" fill="#2b303b"/>
  <rect id="color08" x="30" y="140" width="80" height="80" fill="#65737e"/>
  <rect id="color01" x="120" y="30" width="80" height="80" fill="#bf616a"/>
  <rect id="color09" x="120" y="140" width="80" height="80" fill="#d08770"/>
  <rect id="color02" x="210" y="30" width="80" height="80" fill="#a3be8c"/>
  <rect id="color10" x="210" y="140" width="80" height="80" fill="#343d46"/>
  <rect id="color03" x="300" y="30" width="80" height="80" fill="#ebcb8b"/>
  <rect id="color11" x="300" y="140" width="80" height="80" fill="#4f5b66"/>
  <rect id="color04" x="390" y="30" width="80" height="80" fill="#8fa1b3"/>
  <rect id="color12" x="390" y="140" width="80" height="80" fill="#a7adba"/>
  <rect id="color05" x="480" y="30" width="80" height="80" fill="#b48ead"/>
  <rect id="color13" x="480" y="140" width="80" height="80" fill="#dfe1e8"/>
  <rect id="color06" x="570" y="30" width="80" height="80" fill="#96b5b4"/>
  <rect id="color14" x="570" y="140" width="80" height="80" fill="#ab7967"/>
  <rect id="color07" x="660" y="30" width="80" height="80" fill="#c0c5ce"/>
  <rect id="color15" x="660" y="140" width="80" height="80" fill="#eff1f5"/>
</svg>