<svg id="previews" width="770" height="250" version="1.1" xmlns="http://www.w3.org/2000/svg">
  <rect id="background" x="-2.5e-7" y="-1.3549e-6" width="770" height="250" fill="#192d34"/>
  <rect id="color00" x="30" y="30" width="80" height="80" fill="#192d34"/>
  <rect id="color08" x="30" y="140" width="80" height="80" fill="#3d6876"/>
  <rect id="color01" x="120" y="30" width="80" height="80" fill="#3e91ac"/>
  <rect id="color09" x="120" y="140" width="80" height="80" fill="#d6c65c"/>
  <rect id="color02" x="210" y="30" width="80" height="80" fill="#cbbb4d"/>
  <rect id="color10" x="210" y="140" width="80" height="80" fill="#223c44"/>
  <rect id="color03" x="300" y="30" width="80" height="80" fill="#ffeb66"/>
  <rect id="color11" x="300" y="140" width="80" height="80" fill="#335966"/>
  <rect id="color04" x="390" y="30" width="80" height="80" fill="#499fbc"/>
  <rect id="color12" x="390" y="140" width="80" height="80" fill="#467686"/>
  <rect id="color05" x="480" y="30" width="80" height="80" fill="#cbbb4d"/>
  <rect id="color13" x="480" y="140" width="80" height="80" fill="#a5d8e9"/>
  <rect id="color06" x="570" y="30" width="80" height="80" fill="#62b1cb"/>
  <rect id="color14" x="570" y="140" width="80" height="80" fill="#c4b031"/>
  <rect id="color07" x="660" y="30" width="80" height="80" fill="#7ba8b7"/>
  <rect id="color15" x="660" y="140" width="80" height="80" fill="#e1f7ff"/>
</svg>