<svg id="previews" width="770" height="250" version="1.1" xmlns="http://www.w3.org/2000/svg">
  <rect id="background" x="-2.5e-7" y="-1.3549e-6" width="770" height="250" fill="#1b1f32"/>
  <rect id="color00" x="30" y="30" width="80" height="80" fill="#1b1f32"/>
  <rect id="color08" x="30" y="140" width="80" height="80" fill="#51587b"/>
  <rect id="color01" x="120" y="30" width="80" height="80" fill="#627af4"/>
  <rect id="color09" x="120" y="140" width="80" height="80" fill="#75d5f0"/>
  <rect id="color02" x="210" y="30" width="80" height="80" fill="#67c9e4"/>
  <rect id="color10" x="210" y="140" width="80" height="80" fill="#252a41"/>
  <rect id="color03" x="300" y="30" width="80" height="80" fill="#99e9ff"/>
  <rect id="color11" x="300" y="140" width="80" height="80" fill="#444b6f"/>
  <rect id="color04" x="390" y="30" width="80" height="80" fill="#7289fd"/>
  <rect id="color12" x="390" y="140" width="80" height="80" fill="#5e6587"/>
  <rect id="color05" x="480" y="30" width="80" height="80" fill="#67c9e4"/>
  <rect id="color13" x="480" y="140" width="80" height="80" fill="#c3cdfe"/>
  <rect id="color06" x="570" y="30" width="80" height="80" fill="#8b9efd"/>
  <rect id="color14" x="570" y="140" width="80" height="80" fill="#5cbcd6"/>
  <rect id="color07" x="660" y="30" width="80" height="80" fill="#9094a7"/>
  <rect id="color15" x="660" y="140" width="80" height="80" fill="#e1e6ff"/>
</svg>