<svg id="previews" width="770" height="250" version="1.1" xmlns="http://www.w3.org/2000/svg">
  <rect id="background" x="-2.5e-7" y="-1.3549e-6" width="770" height="250" fill="#fbfaf9"/>
  <rect id="color00" x="30" y="30" width="80" height="80" fill="#222021"/>
  <rect id="color08" x="30" y="140" width="80" height="80" fill="#635f60"/>
  <rect id="color01" x="120" y="30" width="80" height="80" fill="#936c7a"/>
  <rect id="color09" x="120" y="140" width="80" height="80" fill="#ddaf3c"/>
  <rect id="color02" x="210" y="30" width="80" height="80" fill="#cca133"/>
  <rect id="color10" x="210" y="140" width="80" height="80" fill="#2f2d2e"/>
  <rect id="color03" x="300" y="30" width="80" height="80" fill="#ffcc4d"/>
  <rect id="color11" x="300" y="140" width="80" height="80" fill="#565254"/>
  <rect id="color04" x="390" y="30" width="80" height="80" fill="#9c818b"/>
  <rect id="color12" x="390" y="140" width="80" height="80" fill="#706b6d"/>
  <rect id="color05" x="480" y="30" width="80" height="80" fill="#b88914"/>
  <rect id="color13" x="480" y="140" width="80" height="80" fill="#f0a8c1"/>
  <rect id="color06" x="570" y="30" width="80" height="80" fill="#d27998"/>
  <rect id="color14" x="570" y="140" width="80" height="80" fill="#c39622"/>
  <rect id="color07" x="660" y="30" width="80" height="80" fill="#9f999b"/>
  <rect id="color15" x="660" y="140" width="80" height="80" fill="#fbfaf9"/>
</svg>