<svg id="previews" width="770" height="250" version="1.1" xmlns="http://www.w3.org/2000/svg">
  <rect id="background" x="-2.5e-7" y="-1.3549e-6" width="770" height="250" fill="#fbf9f9"/>
  <rect id="color00" x="30" y="30" width="80" height="80" fill="#2a2433"/>
  <rect id="color08" x="30" y="140" width="80" height="80" fill="#635775"/>
  <rect id="color01" x="120" y="30" width="80" height="80" fill="#aa75f5"/>
  <rect id="color09" x="120" y="140" width="80" height="80" fill="#fc8983"/>
  <rect id="color02" x="210" y="30" width="80" height="80" fill="#f87972"/>
  <rect id="color10" x="210" y="140" width="80" height="80" fill="#372f42"/>
  <rect id="color03" x="300" y="30" width="80" height="80" fill="#ffb6b3"/>
  <rect id="color11" x="300" y="140" width="80" height="80" fill="#574b68"/>
  <rect id="color04" x="390" y="30" width="80" height="80" fill="#b886fd"/>
  <rect id="color12" x="390" y="140" width="80" height="80" fill="#706383"/>
  <rect id="color05" x="480" y="30" width="80" height="80" fill="#ed655e"/>
  <rect id="color13" x="480" y="140" width="80" height="80" fill="#e4d2fe"/>
  <rect id="color06" x="570" y="30" width="80" height="80" fill="#c7a0fe"/>
  <rect id="color14" x="570" y="140" width="80" height="80" fill="#f36f68"/>
  <rect id="color07" x="660" y="30" width="80" height="80" fill="#9a90a7"/>
  <rect id="color15" x="660" y="140" width="80" height="80" fill="#fbf9f9"/>
</svg>