<svg id="previews" width="770" height="250" version="1.1" xmlns="http://www.w3.org/2000/svg">
  <rect id="background" x="-2.5e-7" y="-1.3549e-6" width="770" height="250" fill="#faf8f5"/>
  <rect id="color00" x="30" y="30" width="80" height="80" fill="#232834"/>
  <rect id="color08" x="30" y="140" width="80" height="80" fill="#656e81"/>
  <rect id="color01" x="120" y="30" width="80" height="80" fill="#1659df"/>
  <rect id="color09" x="120" y="140" width="80" height="80" fill="#c6b28b"/>
  <rect id="color02" x="210" y="30" width="80" height="80" fill="#b29762"/>
  <rect id="color10" x="210" y="140" width="80" height="80" fill="#31363f"/>
  <rect id="color03" x="300" y="30" width="80" height="80" fill="#e5ddcd"/>
  <rect id="color11" x="300" y="140" width="80" height="80" fill="#4f5664"/>
  <rect id="color04" x="390" y="30" width="80" height="80" fill="#3d75e6"/>
  <rect id="color12" x="390" y="140" width="80" height="80" fill="#707a8f"/>
  <rect id="color05" x="480" y="30" width="80" height="80" fill="#896724"/>
  <rect id="color13" x="480" y="140" width="80" height="80" fill="#b7c9eb"/>
  <rect id="color06" x="570" y="30" width="80" height="80" fill="#728fcb"/>
  <rect id="color14" x="570" y="140" width="80" height="80" fill="#9a7c42"/>
  <rect id="color07" x="660" y="30" width="80" height="80" fill="#8d95a5"/>
  <rect id="color15" x="660" y="140" width="80" height="80" fill="#faf8f5"/>
</svg>