<svg id="previews" width="770" height="250" version="1.1" xmlns="http://www.w3.org/2000/svg">
  <rect id="background" x="-2.5e-7" y="-1.3549e-6" width="770" height="250" fill="#fbfaf9"/>
  <rect id="color00" x="30" y="30" width="80" height="80" fill="#292724"/>
  <rect id="color08" x="30" y="140" width="80" height="80" fill="#7e7767"/>
  <rect id="color01" x="120" y="30" width="80" height="80" fill="#816f4b"/>
  <rect id="color09" x="120" y="140" width="80" height="80" fill="#f29d63"/>
  <rect id="color02" x="210" y="30" width="80" height="80" fill="#ec9255"/>
  <rect id="color10" x="210" y="140" width="80" height="80" fill="#3d3a34"/>
  <rect id="color03" x="300" y="30" width="80" height="80" fill="#ffb380"/>
  <rect id="color11" x="300" y="140" width="80" height="80" fill="#615c51"/>
  <rect id="color04" x="390" y="30" width="80" height="80" fill="#957e50"/>
  <rect id="color12" x="390" y="140" width="80" height="80" fill="#908774"/>
  <rect id="color05" x="480" y="30" width="80" height="80" fill="#dd7c3c"/>
  <rect id="color13" x="480" y="140" width="80" height="80" fill="#ddcba6"/>
  <rect id="color06" x="570" y="30" width="80" height="80" fill="#ac8e53"/>
  <rect id="color14" x="570" y="140" width="80" height="80" fill="#e58748"/>
  <rect id="color07" x="660" y="30" width="80" height="80" fill="#ada594"/>
  <rect id="color15" x="660" y="140" width="80" height="80" fill="#fbfaf9"/>
</svg>