<svg id="previews" width="770" height="250" version="1.1" xmlns="http://www.w3.org/2000/svg">
  <rect id="background" x="-2.5e-7" y="-1.3549e-6" width="770" height="250" fill="#2a2d2a"/>
  <rect id="color00" x="30" y="30" width="80" height="80" fill="#2a2d2a"/>
  <rect id="color08" x="30" y="140" width="80" height="80" fill="#535f53"/>
  <rect id="color01" x="120" y="30" width="80" height="80" fill="#5c705c"/>
  <rect id="color09" x="120" y="140" width="80" height="80" fill="#cbe25a"/>
  <rect id="color02" x="210" y="30" width="80" height="80" fill="#bfd454"/>
  <rect id="color10" x="210" y="140" width="80" height="80" fill="#353b35"/>
  <rect id="color03" x="300" y="30" width="80" height="80" fill="#e5fb79"/>
  <rect id="color11" x="300" y="140" width="80" height="80" fill="#485148"/>
  <rect id="color04" x="390" y="30" width="80" height="80" fill="#687d68"/>
  <rect id="color12" x="390" y="140" width="80" height="80" fill="#5e6e5e"/>
  <rect id="color05" x="480" y="30" width="80" height="80" fill="#bfd454"/>
  <rect id="color13" x="480" y="140" width="80" height="80" fill="#c8e4c8"/>
  <rect id="color06" x="570" y="30" width="80" height="80" fill="#8fae8f"/>
  <rect id="color14" x="570" y="140" width="80" height="80" fill="#b1c44f"/>
  <rect id="color07" x="660" y="30" width="80" height="80" fill="#a1b5a1"/>
  <rect id="color15" x="660" y="140" width="80" height="80" fill="#f0fff0"/>
</svg>