<svg id="previews" width="770" height="250" version="1.1" xmlns="http://www.w3.org/2000/svg">
  <rect id="background" x="-2.5e-7" y="-1.3549e-6" width="770" height="250" fill="#322d29"/>
  <rect id="color00" x="30" y="30" width="80" height="80" fill="#322d29"/>
  <rect id="color08" x="30" y="140" width="80" height="80" fill="#6a5f58"/>
  <rect id="color01" x="120" y="30" width="80" height="80" fill="#816d5f"/>
  <rect id="color09" x="120" y="140" width="80" height="80" fill="#e6b84d"/>
  <rect id="color02" x="210" y="30" width="80" height="80" fill="#d9b154"/>
  <rect id="color10" x="210" y="140" width="80" height="80" fill="#3f3a37"/>
  <rect id="color03" x="300" y="30" width="80" height="80" fill="#fcc440"/>
  <rect id="color11" x="300" y="140" width="80" height="80" fill="#5b534d"/>
  <rect id="color04" x="390" y="30" width="80" height="80" fill="#88786d"/>
  <rect id="color12" x="390" y="140" width="80" height="80" fill="#796b63"/>
  <rect id="color05" x="480" y="30" width="80" height="80" fill="#d9b154"/>
  <rect id="color13" x="480" y="140" width="80" height="80" fill="#dfb99f"/>
  <rect id="color06" x="570" y="30" width="80" height="80" fill="#967e6e"/>
  <rect id="color14" x="570" y="140" width="80" height="80" fill="#cda956"/>
  <rect id="color07" x="660" y="30" width="80" height="80" fill="#b5a9a1"/>
  <rect id="color15" x="660" y="140" width="80" height="80" fill="#fff3eb"/>
</svg>