<svg id="previews" width="770" height="250" version="1.1" xmlns="http://www.w3.org/2000/svg">
  <rect id="background" x="-2.5e-7" y="-1.3549e-6" width="770" height="250" fill="#191716"/>
  <rect id="color00" x="30" y="30" width="80" height="80" fill="#0f0e0d"/>
  <rect id="color08" x="30" y="140" width="80" height="80" fill="#383332"/>
  <rect id="color01" x="120" y="30" width="80" height="80" fill="#845336"/>
  <rect id="color09" x="120" y="140" width="80" height="80" fill="#8c4f4a"/>
  <rect id="color02" x="210" y="30" width="80" height="80" fill="#57553c"/>
  <rect id="color10" x="210" y="140" width="80" height="80" fill="#898471"/>
  <rect id="color03" x="300" y="30" width="80" height="80" fill="#a17e3e"/>
  <rect id="color11" x="300" y="140" width="80" height="80" fill="#c8b491"/>
  <rect id="color04" x="390" y="30" width="80" height="80" fill="#43454f"/>
  <rect id="color12" x="390" y="140" width="80" height="80" fill="#65788f"/>
  <rect id="color05" x="480" y="30" width="80" height="80" fill="#604848"/>
  <rect id="color13" x="480" y="140" width="80" height="80" fill="#755e4a"/>
  <rect id="color06" x="570" y="30" width="80" height="80" fill="#5c6652"/>
  <rect id="color14" x="570" y="140" width="80" height="80" fill="#718062"/>
  <rect id="color07" x="660" y="30" width="80" height="80" fill="#a18b62"/>
  <rect id="color15" x="660" y="140" width="80" height="80" fill="#bc9d66"/>
</svg>