<svg id="previews" width="770" height="250" version="1.1" xmlns="http://www.w3.org/2000/svg">
  <rect id="background" x="-2.5e-7" y="-1.3549e-6" width="770" height="250" fill="#f9f9f9"/>
  <rect id="color00" x="30" y="30" width="80" height="80" fill="#f9f9f9"/>
  <rect id="color08" x="30" y="140" width="80" height="80" fill="#ffffff"/>
  <rect id="color01" x="120" y="30" width="80" height="80" fill="#dd4c4f"/>
  <rect id="color09" x="120" y="140" width="80" height="80" fill="#ff585b"/>
  <rect id="color02" x="210" y="30" width="80" height="80" fill="#4d8011"/>
  <rect id="color10" x="210" y="140" width="80" height="80" fill="#65a916"/>
  <rect id="color03" x="300" y="30" width="80" height="80" fill="#ff9f1a"/>
  <rect id="color11" x="300" y="140" width="80" height="80" fill="#f4bf75"/>
  <rect id="color04" x="390" y="30" width="80" height="80" fill="#66d9ef"/>
  <rect id="color12" x="390" y="140" width="80" height="80" fill="#86e1f3"/>
  <rect id="color05" x="480" y="30" width="80" height="80" fill="#f92672"/>
  <rect id="color13" x="480" y="140" width="80" height="80" fill="#fa5792"/>
  <rect id="color06" x="570" y="30" width="80" height="80" fill="#2aa198"/>
  <rect id="color14" x="570" y="140" width="80" height="80" fill="#49afa7"/>
  <rect id="color07" x="660" y="30" width="80" height="80" fill="#2b303b"/>
  <rect id="color15" x="660" y="140" width="80" height="80" fill="#34323a"/>
</svg>