<svg id="previews" width="770" height="250" version="1.1" xmlns="http://www.w3.org/2000/svg">
  <rect id="background" x="-2.5e-7" y="-1.3549e-6" width="770" height="250" fill="#fef1ce"/>
  <rect id="color00" x="30" y="30" width="80" height="80" fill="#b6a974"/>
  <rect id="color08" x="30" y="140" width="80" height="80" fill="#887f57"/>
  <rect id="color01" x="120" y="30" width="80" height="80" fill="#ebbe39"/>
  <rect id="color09" x="120" y="140" width="80" height="80" fill="#c39d2f"/>
  <rect id="color02" x="210" y="30" width="80" height="80" fill="#ea8235"/>
  <rect id="color10" x="210" y="140" width="80" height="80" fill="#c36c2c"/>
  <rect id="color03" x="300" y="30" width="80" height="80" fill="#df5029"/>
  <rect id="color11" x="300" y="140" width="80" height="80" fill="#c54724"/>
  <rect id="color04" x="390" y="30" width="80" height="80" fill="#b4171e"/>
  <rect id="color12" x="390" y="140" width="80" height="80" fill="#9b141a"/>
  <rect id="color05" x="480" y="30" width="80" height="80" fill="#850f25"/>
  <rect id="color13" x="480" y="140" width="80" height="80" fill="#660c1d"/>
  <rect id="color06" x="570" y="30" width="80" height="80" fill="#550c27"/>
  <rect id="color14" x="570" y="140" width="80" height="80" fill="#39081a"/>
  <rect id="color07" x="660" y="30" width="80" height="80" fill="#421439"/>
  <rect id="color15" x="660" y="140" width="80" height="80" fill="#280c22"/>
</svg>