<svg id="previews" width="770" height="250" version="1.1" xmlns="http://www.w3.org/2000/svg">
  <rect id="background" x="-2.5e-7" y="-1.3549e-6" width="770" height="250" fill="#111111"/>
  <rect id="color00" x="30" y="30" width="80" height="80" fill="#2e1f1f"/>
  <rect id="color08" x="30" y="140" width="80" height="80" fill="#422d2d"/>
  <rect id="color01" x="120" y="30" width="80" height="80" fill="#aa0e50"/>
  <rect id="color09" x="120" y="140" width="80" height="80" fill="#be0e50"/>
  <rect id="color02" x="210" y="30" width="80" height="80" fill="#1dcc9f"/>
  <rect id="color10" x="210" y="140" width="80" height="80" fill="#1fd9a9"/>
  <rect id="color03" x="300" y="30" width="80" height="80" fill="#27c282"/>
  <rect id="color11" x="300" y="140" width="80" height="80" fill="#2cdb93"/>
  <rect id="color04" x="390" y="30" width="80" height="80" fill="#7182a8"/>
  <rect id="color12" x="390" y="140" width="80" height="80" fill="#8194bf"/>
  <rect id="color05" x="480" y="30" width="80" height="80" fill="#a673a6"/>
  <rect id="color13" x="480" y="140" width="80" height="80" fill="#7f5aa1"/>
  <rect id="color06" x="570" y="30" width="80" height="80" fill="#6da3a1"/>
  <rect id="color14" x="570" y="140" width="80" height="80" fill="#669997"/>
  <rect id="color07" x="660" y="30" width="80" height="80" fill="#b7bbbd"/>
  <rect id="color15" x="660" y="140" width="80" height="80" fill="#d9d9d9"/>
</svg>