<svg id="previews" width="770" height="250" version="1.1" xmlns="http://www.w3.org/2000/svg">
  <rect id="background" x="-2.5e-7" y="-1.3549e-6" width="770" height="250" fill="#272725"/>
  <rect id="color00" x="30" y="30" width="80" height="80" fill="#282826"/>
  <rect id="color08" x="30" y="140" width="80" height="80" fill="#4f4f4b"/>
  <rect id="color01" x="120" y="30" width="80" height="80" fill="#7d5151"/>
  <rect id="color09" x="120" y="140" width="80" height="80" fill="#9c6565"/>
  <rect id="color02" x="210" y="30" width="80" height="80" fill="#959c4f"/>
  <rect id="color10" x="210" y="140" width="80" height="80" fill="#b6bd6e"/>
  <rect id="color03" x="300" y="30" width="80" height="80" fill="#a78749"/>
  <rect id="color11" x="300" y="140" width="80" height="80" fill="#bc9f67"/>
  <rect id="color04" x="390" y="30" width="80" height="80" fill="#455563"/>
  <rect id="color12" x="390" y="140" width="80" height="80" fill="#4d6377"/>
  <rect id="color05" x="480" y="30" width="80" height="80" fill="#9f908d"/>
  <rect id="color13" x="480" y="140" width="80" height="80" fill="#b0a7b4"/>
  <rect id="color06" x="570" y="30" width="80" height="80" fill="#4a5e5b"/>
  <rect id="color14" x="570" y="140" width="80" height="80" fill="#80a09b"/>
  <rect id="color07" x="660" y="30" width="80" height="80" fill="#f2f2f2"/>
  <rect id="color15" x="660" y="140" width="80" height="80" fill="#ffffff"/>
</svg>