<svg id="previews" width="770" height="250" version="1.1" xmlns="http://www.w3.org/2000/svg">
  <rect id="background" x="-2.5e-7" y="-1.3549e-6" width="770" height="250" fill="#141c21"/>
  <rect id="color00" x="30" y="30" width="80" height="80" fill="#283035"/>
  <rect id="color08" x="30" y="140" width="80" height="80" fill="#3c4449"/>
  <rect id="color01" x="120" y="30" width="80" height="80" fill="#e73662"/>
  <rect id="color09" x="120" y="140" width="80" height="80" fill="#ee6d8d"/>
  <rect id="color02" x="210" y="30" width="80" height="80" fill="#bdb246"/>
  <rect id="color10" x="210" y="140" width="80" height="80" fill="#cac26c"/>
  <rect id="color03" x="300" y="30" width="80" height="80" fill="#f2542d"/>
  <rect id="color11" x="300" y="140" width="80" height="80" fill="#f57b5d"/>
  <rect id="color04" x="390" y="30" width="80" height="80" fill="#0596b3"/>
  <rect id="color12" x="390" y="140" width="80" height="80" fill="#06c0e5"/>
  <rect id="color05" x="480" y="30" width="80" height="80" fill="#8f54a0"/>
  <rect id="color13" x="480" y="140" width="80" height="80" fill="#a672b5"/>
  <rect id="color06" x="570" y="30" width="80" height="80" fill="#2fc6ba"/>
  <rect id="color14" x="570" y="140" width="80" height="80" fill="#52d6cb"/>
  <rect id="color07" x="660" y="30" width="80" height="80" fill="#c7e8f3"/>
  <rect id="color15" x="660" y="140" width="80" height="80" fill="#ecfafe"/>
</svg>