<svg id="previews" width="770" height="250" version="1.1" xmlns="http://www.w3.org/2000/svg">
  <rect id="background" x="-2.5e-7" y="-1.3549e-6" width="770" height="250" fill="#111216"/>
  <rect id="color00" x="30" y="30" width="80" height="80" fill="#2b2b2b"/>
  <rect id="color08" x="30" y="140" width="80" height="80" fill="#4a4a4a"/>
  <rect id="color01" x="120" y="30" width="80" height="80" fill="#fe3762"/>
  <rect id="color09" x="120" y="140" width="80" height="80" fill="#fe2e58"/>
  <rect id="color02" x="210" y="30" width="80" height="80" fill="#2aacaa"/>
  <rect id="color10" x="210" y="140" width="80" height="80" fill="#33c9c8"/>
  <rect id="color03" x="300" y="30" width="80" height="80" fill="#f83294"/>
  <rect id="color11" x="300" y="140" width="80" height="80" fill="#f02d89"/>
  <rect id="color04" x="390" y="30" width="80" height="80" fill="#4983ff"/>
  <rect id="color12" x="390" y="140" width="80" height="80" fill="#3e76ff"/>
  <rect id="color05" x="480" y="30" width="80" height="80" fill="#cb76f7"/>
  <rect id="color13" x="480" y="140" width="80" height="80" fill="#b767df"/>
  <rect id="color06" x="570" y="30" width="80" height="80" fill="#5cc7d1"/>
  <rect id="color14" x="570" y="140" width="80" height="80" fill="#56b6c1"/>
  <rect id="color07" x="660" y="30" width="80" height="80" fill="#9cacac"/>
  <rect id="color15" x="660" y="140" width="80" height="80" fill="#495f6a"/>
</svg>