<svg id="previews" width="770" height="250" version="1.1" xmlns="http://www.w3.org/2000/svg">
  <rect id="background" x="-2.5e-7" y="-1.3549e-6" width="770" height="250" fill="#0b0c0f"/>
  <rect id="color00" x="30" y="30" width="80" height="80" fill="#0e0f13"/>
  <rect id="color08" x="30" y="140" width="80" height="80" fill="#1e1f28"/>
  <rect id="color01" x="120" y="30" width="80" height="80" fill="#e95678"/>
  <rect id="color09" x="120" y="140" width="80" height="80" fill="#ec6a88"/>
  <rect id="color02" x="210" y="30" width="80" height="80" fill="#29d398"/>
  <rect id="color10" x="210" y="140" width="80" height="80" fill="#3fdaa4"/>
  <rect id="color03" x="300" y="30" width="80" height="80" fill="#f09483"/>
  <rect id="color11" x="300" y="140" width="80" height="80" fill="#fbc3a7"/>
  <rect id="color04" x="390" y="30" width="80" height="80" fill="#26bbd9"/>
  <rect id="color12" x="390" y="140" width="80" height="80" fill="#3fc4de"/>
  <rect id="color05" x="480" y="30" width="80" height="80" fill="#ee64ac"/>
  <rect id="color13" x="480" y="140" width="80" height="80" fill="#f075b5"/>
  <rect id="color06" x="570" y="30" width="80" height="80" fill="#59e1e3"/>
  <rect id="color14" x="570" y="140" width="80" height="80" fill="#6be4e6"/>
  <rect id="color07" x="660" y="30" width="80" height="80" fill="#bbbbbb"/>
  <rect id="color15" x="660" y="140" width="80" height="80" fill="#c5c8c6"/>
</svg>