<svg id="previews" width="770" height="250" version="1.1" xmlns="http://www.w3.org/2000/svg">
  <rect id="background" x="-2.5e-7" y="-1.3549e-6" width="770" height="250" fill="#f9cbbe"/>
  <rect id="color00" x="30" y="30" width="80" height="80" fill="#f9cbbe"/>
  <rect id="color08" x="30" y="140" width="80" height="80" fill="#ad8d84"/>
  <rect id="color01" x="120" y="30" width="80" height="80" fill="#df2d52"/>
  <rect id="color09" x="120" y="140" width="80" height="80" fill="#ed2f55"/>
  <rect id="color02" x="210" y="30" width="80" height="80" fill="#2e916d"/>
  <rect id="color10" x="210" y="140" width="80" height="80" fill="#2e916d"/>
  <rect id="color03" x="300" y="30" width="80" height="80" fill="#f6661e"/>
  <rect id="color11" x="300" y="140" width="80" height="80" fill="#ff6a1f"/>
  <rect id="color04" x="390" y="30" width="80" height="80" fill="#006e93"/>
  <rect id="color12" x="390" y="140" width="80" height="80" fill="#00779e"/>
  <rect id="color05" x="480" y="30" width="80" height="80" fill="#772aa1"/>
  <rect id="color13" x="480" y="140" width="80" height="80" fill="#7f2cab"/>
  <rect id="color06" x="570" y="30" width="80" height="80" fill="#f43e5c"/>
  <rect id="color14" x="570" y="140" width="80" height="80" fill="#ff4060"/>
  <rect id="color07" x="660" y="30" width="80" height="80" fill="#16161c"/>
  <rect id="color15" x="660" y="140" width="80" height="80" fill="#16161c"/>
</svg>