<svg id="previews" width="770" height="250" version="1.1" xmlns="http://www.w3.org/2000/svg">
  <rect id="background" x="-2.5e-7" y="-1.3549e-6" width="770" height="250" fill="#0b1317"/>
  <rect id="color00" x="30" y="30" width="80" height="80" fill="#0b1317"/>
  <rect id="color08" x="30" y="140" width="80" height="80" fill="#182c35"/>
  <rect id="color01" x="120" y="30" width="80" height="80" fill="#5c7190"/>
  <rect id="color09" x="120" y="140" width="80" height="80" fill="#404e63"/>
  <rect id="color02" x="210" y="30" width="80" height="80" fill="#a0a5b0"/>
  <rect id="color10" x="210" y="140" width="80" height="80" fill="#747880"/>
  <rect id="color03" x="300" y="30" width="80" height="80" fill="#6693a6"/>
  <rect id="color11" x="300" y="140" width="80" height="80" fill="#4e707e"/>
  <rect id="color04" x="390" y="30" width="80" height="80" fill="#574f64"/>
  <rect id="color12" x="390" y="140" width="80" height="80" fill="#3b3644"/>
  <rect id="color05" x="480" y="30" width="80" height="80" fill="#1f74a3"/>
  <rect id="color13" x="480" y="140" width="80" height="80" fill="#0d4d6e"/>
  <rect id="color06" x="570" y="30" width="80" height="80" fill="#d29a3d"/>
  <rect id="color14" x="570" y="140" width="80" height="80" fill="#9b722d"/>
  <rect id="color07" x="660" y="30" width="80" height="80" fill="#d0cfd9"/>
  <rect id="color15" x="660" y="140" width="80" height="80" fill="#9e9da5"/>
</svg>