<svg id="previews" width="770" height="250" version="1.1" xmlns="http://www.w3.org/2000/svg">
  <rect id="background" x="-2.5e-7" y="-1.3549e-6" width="770" height="250" fill="#121419"/>
  <rect id="color00" x="30" y="30" width="80" height="80" fill="#505152"/>
  <rect id="color08" x="30" y="140" width="80" height="80" fill="#7c7d7e"/>
  <rect id="color01" x="120" y="30" width="80" height="80" fill="#b63f53"/>
  <rect id="color09" x="120" y="140" width="80" height="80" fill="#e8909b"/>
  <rect id="color02" x="210" y="30" width="80" height="80" fill="#51997a"/>
  <rect id="color10" x="210" y="140" width="80" height="80" fill="#9edcbb"/>
  <rect id="color03" x="300" y="30" width="80" height="80" fill="#b27b42"/>
  <rect id="color11" x="300" y="140" width="80" height="80" fill="#dcc58f"/>
  <rect id="color04" x="390" y="30" width="80" height="80" fill="#5c95b3"/>
  <rect id="color12" x="390" y="140" width="80" height="80" fill="#a7c8d4"/>
  <rect id="color05" x="480" y="30" width="80" height="80" fill="#b85a86"/>
  <rect id="color13" x="480" y="140" width="80" height="80" fill="#d9a4c8"/>
  <rect id="color06" x="570" y="30" width="80" height="80" fill="#83a6a7"/>
  <rect id="color14" x="570" y="140" width="80" height="80" fill="#bbd7d2"/>
  <rect id="color07" x="660" y="30" width="80" height="80" fill="#a4a6a7"/>
  <rect id="color15" x="660" y="140" width="80" height="80" fill="#e8e6e4"/>
</svg>