<svg id="previews" width="770" height="250" version="1.1" xmlns="http://www.w3.org/2000/svg">
  <rect id="background" x="-2.5e-7" y="-1.3549e-6" width="770" height="250" fill="#20242c"/>
  <rect id="color00" x="30" y="30" width="80" height="80" fill="#20242c"/>
  <rect id="color08" x="30" y="140" width="80" height="80" fill="#273c24"/>
  <rect id="color01" x="120" y="30" width="80" height="80" fill="#570b0b"/>
  <rect id="color09" x="120" y="140" width="80" height="80" fill="#570b0b"/>
  <rect id="color02" x="210" y="30" width="80" height="80" fill="#2e8b57"/>
  <rect id="color10" x="210" y="140" width="80" height="80" fill="#2e8b57"/>
  <rect id="color03" x="300" y="30" width="80" height="80" fill="#a0af39"/>
  <rect id="color11" x="300" y="140" width="80" height="80" fill="#a0af39"/>
  <rect id="color04" x="390" y="30" width="80" height="80" fill="#2f4748"/>
  <rect id="color12" x="390" y="140" width="80" height="80" fill="#2f4748"/>
  <rect id="color05" x="480" y="30" width="80" height="80" fill="#185282"/>
  <rect id="color13" x="480" y="140" width="80" height="80" fill="#185282"/>
  <rect id="color06" x="570" y="30" width="80" height="80" fill="#737373"/>
  <rect id="color14" x="570" y="140" width="80" height="80" fill="#737373"/>
  <rect id="color07" x="660" y="30" width="80" height="80" fill="#c5c5c5"/>
  <rect id="color15" x="660" y="140" width="80" height="80" fill="#c5c5c5"/>
</svg>