<svg id="previews" width="770" height="250" version="1.1" xmlns="http://www.w3.org/2000/svg">
  <rect id="background" x="-2.5e-7" y="-1.3549e-6" width="770" height="250" fill="#273941"/>
  <rect id="color00" x="30" y="30" width="80" height="80" fill="#2c4b59"/>
  <rect id="color08" x="30" y="140" width="80" height="80" fill="#456472"/>
  <rect id="color01" x="120" y="30" width="80" height="80" fill="#a66363"/>
  <rect id="color09" x="120" y="140" width="80" height="80" fill="#c27171"/>
  <rect id="color02" x="210" y="30" width="80" height="80" fill="#63a690"/>
  <rect id="color10" x="210" y="140" width="80" height="80" fill="#6dc2a3"/>
  <rect id="color03" x="300" y="30" width="80" height="80" fill="#a6a663"/>
  <rect id="color11" x="300" y="140" width="80" height="80" fill="#bfc271"/>
  <rect id="color04" x="390" y="30" width="80" height="80" fill="#6385a6"/>
  <rect id="color12" x="390" y="140" width="80" height="80" fill="#719bc2"/>
  <rect id="color05" x="480" y="30" width="80" height="80" fill="#bf9c86"/>
  <rect id="color13" x="480" y="140" width="80" height="80" fill="#bf9c86"/>
  <rect id="color06" x="570" y="30" width="80" height="80" fill="#63a69b"/>
  <rect id="color14" x="570" y="140" width="80" height="80" fill="#71c2af"/>
  <rect id="color07" x="660" y="30" width="80" height="80" fill="#c0c5ce"/>
  <rect id="color15" x="660" y="140" width="80" height="80" fill="#eff1f5"/>
</svg>