<svg id="previews" width="770" height="250" version="1.1" xmlns="http://www.w3.org/2000/svg">
  <rect id="background" x="-2.5e-7" y="-1.3549e-6" width="770" height="250" fill="#0b0b0b"/>
  <rect id="color00" x="30" y="30" width="80" height="80" fill="#25221c"/>
  <rect id="color08" x="30" y="140" width="80" height="80" fill="#98481c"/>
  <rect id="color01" x="120" y="30" width="80" height="80" fill="#eb961b"/>
  <rect id="color09" x="120" y="140" width="80" height="80" fill="#c48371"/>
  <rect id="color02" x="210" y="30" width="80" height="80" fill="#5b8797"/>
  <rect id="color10" x="210" y="140" width="80" height="80" fill="#31915b"/>
  <rect id="color03" x="300" y="30" width="80" height="80" fill="#c78415"/>
  <rect id="color11" x="300" y="140" width="80" height="80" fill="#6a2929"/>
  <rect id="color04" x="390" y="30" width="80" height="80" fill="#8f5011"/>
  <rect id="color12" x="390" y="140" width="80" height="80" fill="#dabd69"/>
  <rect id="color05" x="480" y="30" width="80" height="80" fill="#5c507b"/>
  <rect id="color13" x="480" y="140" width="80" height="80" fill="#3884a4"/>
  <rect id="color06" x="570" y="30" width="80" height="80" fill="#9b284f"/>
  <rect id="color14" x="570" y="140" width="80" height="80" fill="#bf5742"/>
  <rect id="color07" x="660" y="30" width="80" height="80" fill="#867a5c"/>
  <rect id="color15" x="660" y="140" width="80" height="80" fill="#774f44"/>
</svg>