<svg id="previews" width="770" height="250" version="1.1" xmlns="http://www.w3.org/2000/svg">
  <rect id="background" x="-2.5e-7" y="-1.3549e-6" width="770" height="250" fill="#1e2a2b"/>
  <rect id="color00" x="30" y="30" width="80" height="80" fill="#172020"/>
  <rect id="color08" x="30" y="140" width="80" height="80" fill="#1f2828"/>
  <rect id="color01" x="120" y="30" width="80" height="80" fill="#c57750"/>
  <rect id="color09" x="120" y="140" width="80" height="80" fill="#c57750"/>
  <rect id="color02" x="210" y="30" width="80" height="80" fill="#788871"/>
  <rect id="color10" x="210" y="140" width="80" height="80" fill="#788871"/>
  <rect id="color03" x="300" y="30" width="80" height="80" fill="#af8d6d"/>
  <rect id="color11" x="300" y="140" width="80" height="80" fill="#af8d6d"/>
  <rect id="color04" x="390" y="30" width="80" height="80" fill="#ca946b"/>
  <rect id="color12" x="390" y="140" width="80" height="80" fill="#ca946b"/>
  <rect id="color05" x="480" y="30" width="80" height="80" fill="#c2ae9d"/>
  <rect id="color13" x="480" y="140" width="80" height="80" fill="#c2ae9d"/>
  <rect id="color06" x="570" y="30" width="80" height="80" fill="#cdb09f"/>
  <rect id="color14" x="570" y="140" width="80" height="80" fill="#cdb09f"/>
  <rect id="color07" x="660" y="30" width="80" height="80" fill="#e3cfca"/>
  <rect id="color15" x="660" y="140" width="80" height="80" fill="#e3cfca"/>
</svg>