<svg id="previews" width="770" height="250" version="1.1" xmlns="http://www.w3.org/2000/svg">
  <rect id="background" x="-2.5e-7" y="-1.3549e-6" width="770" height="250" fill="#11292e"/>
  <rect id="color00" x="30" y="30" width="80" height="80" fill="#0e1f22"/>
  <rect id="color08" x="30" y="140" width="80" height="80" fill="#1c4b4e"/>
  <rect id="color01" x="120" y="30" width="80" height="80" fill="#a85659"/>
  <rect id="color09" x="120" y="140" width="80" height="80" fill="#eb8995"/>
  <rect id="color02" x="210" y="30" width="80" height="80" fill="#668e8c"/>
  <rect id="color10" x="210" y="140" width="80" height="80" fill="#82aea9"/>
  <rect id="color03" x="300" y="30" width="80" height="80" fill="#c3b6a4"/>
  <rect id="color11" x="300" y="140" width="80" height="80" fill="#e1d9ce"/>
  <rect id="color04" x="390" y="30" width="80" height="80" fill="#326d78"/>
  <rect id="color12" x="390" y="140" width="80" height="80" fill="#a7d2cd"/>
  <rect id="color05" x="480" y="30" width="80" height="80" fill="#433c32"/>
  <rect id="color13" x="480" y="140" width="80" height="80" fill="#aa9576"/>
  <rect id="color06" x="570" y="30" width="80" height="80" fill="#386e74"/>
  <rect id="color14" x="570" y="140" width="80" height="80" fill="#90c0bd"/>
  <rect id="color07" x="660" y="30" width="80" height="80" fill="#e0f2ec"/>
  <rect id="color15" x="660" y="140" width="80" height="80" fill="#f0f8f3"/>
</svg>