<svg id="previews" width="770" height="250" version="1.1" xmlns="http://www.w3.org/2000/svg">
  <rect id="background" x="-2.5e-7" y="-1.3549e-6" width="770" height="250" fill="#0d0b0d"/>
  <rect id="color00" x="30" y="30" width="80" height="80" fill="#1e2f41"/>
  <rect id="color08" x="30" y="140" width="80" height="80" fill="#906b61"/>
  <rect id="color01" x="120" y="30" width="80" height="80" fill="#753b39"/>
  <rect id="color09" x="120" y="140" width="80" height="80" fill="#7f403e"/>
  <rect id="color02" x="210" y="30" width="80" height="80" fill="#52633e"/>
  <rect id="color10" x="210" y="140" width="80" height="80" fill="#5f7348"/>
  <rect id="color03" x="300" y="30" width="80" height="80" fill="#965142"/>
  <rect id="color11" x="300" y="140" width="80" height="80" fill="#a6594a"/>
  <rect id="color04" x="390" y="30" width="80" height="80" fill="#486569"/>
  <rect id="color12" x="390" y="140" width="80" height="80" fill="#306769"/>
  <rect id="color05" x="480" y="30" width="80" height="80" fill="#503b66"/>
  <rect id="color13" x="480" y="140" width="80" height="80" fill="#6d4f8a"/>
  <rect id="color06" x="570" y="30" width="80" height="80" fill="#29635b"/>
  <rect id="color14" x="570" y="140" width="80" height="80" fill="#2f7066"/>
  <rect id="color07" x="660" y="30" width="80" height="80" fill="#b99f8d"/>
  <rect id="color15" x="660" y="140" width="80" height="80" fill="#f3dcc6"/>
</svg>