<svg id="previews" width="770" height="250" version="1.1" xmlns="http://www.w3.org/2000/svg">
  <rect id="background" x="-2.5e-7" y="-1.3549e-6" width="770" height="250" fill="#181b20"/>
  <rect id="color00" x="30" y="30" width="80" height="80" fill="#353535"/>
  <rect id="color08" x="30" y="140" width="80" height="80" fill="#5f5f5f"/>
  <rect id="color01" x="120" y="30" width="80" height="80" fill="#744b40"/>
  <rect id="color09" x="120" y="140" width="80" height="80" fill="#785850"/>
  <rect id="color02" x="210" y="30" width="80" height="80" fill="#6d6137"/>
  <rect id="color10" x="210" y="140" width="80" height="80" fill="#6f6749"/>
  <rect id="color03" x="300" y="30" width="80" height="80" fill="#765636"/>
  <rect id="color11" x="300" y="140" width="80" height="80" fill="#776049"/>
  <rect id="color04" x="390" y="30" width="80" height="80" fill="#61564b"/>
  <rect id="color12" x="390" y="140" width="80" height="80" fill="#696057"/>
  <rect id="color05" x="480" y="30" width="80" height="80" fill="#6b4a49"/>
  <rect id="color13" x="480" y="140" width="80" height="80" fill="#6f5a59"/>
  <rect id="color06" x="570" y="30" width="80" height="80" fill="#435861"/>
  <rect id="color14" x="570" y="140" width="80" height="80" fill="#525f66"/>
  <rect id="color07" x="660" y="30" width="80" height="80" fill="#b3b3b3"/>
  <rect id="color15" x="660" y="140" width="80" height="80" fill="#cdcdcd"/>
</svg>