<svg id="previews" width="770" height="250" version="1.1" xmlns="http://www.w3.org/2000/svg">
  <rect id="background" x="-2.5e-7" y="-1.3549e-6" width="770" height="250" fill="#24262e"/>
  <rect id="color00" x="30" y="30" width="80" height="80" fill="#24262e"/>
  <rect id="color08" x="30" y="140" width="80" height="80" fill="#878897"/>
  <rect id="color01" x="120" y="30" width="80" height="80" fill="#dafd50"/>
  <rect id="color09" x="120" y="140" width="80" height="80" fill="#767692"/>
  <rect id="color02" x="210" y="30" width="80" height="80" fill="#828c89"/>
  <rect id="color10" x="210" y="140" width="80" height="80" fill="#454751"/>
  <rect id="color03" x="300" y="30" width="80" height="80" fill="#ffa263"/>
  <rect id="color11" x="300" y="140" width="80" height="80" fill="#666774"/>
  <rect id="color04" x="390" y="30" width="80" height="80" fill="#3083dc"/>
  <rect id="color12" x="390" y="140" width="80" height="80" fill="#a8a9b9"/>
  <rect id="color05" x="480" y="30" width="80" height="80" fill="#cd3f45"/>
  <rect id="color13" x="480" y="140" width="80" height="80" fill="#d1d1e1"/>
  <rect id="color06" x="570" y="30" width="80" height="80" fill="#c1b28e"/>
  <rect id="color14" x="570" y="140" width="80" height="80" fill="#7351fe"/>
  <rect id="color07" x="660" y="30" width="80" height="80" fill="#eeeeee"/>
  <rect id="color15" x="660" y="140" width="80" height="80" fill="#cacadc"/>
</svg>