<svg id="previews" width="770" height="250" version="1.1" xmlns="http://www.w3.org/2000/svg">
  <rect id="background" x="-2.5e-7" y="-1.3549e-6" width="770" height="250" fill="#20242d"/>
  <rect id="color00" x="30" y="30" width="80" height="80" fill="#1c2028"/>
  <rect id="color08" x="30" y="140" width="80" height="80" fill="#585e74"/>
  <rect id="color01" x="120" y="30" width="80" height="80" fill="#fc8993"/>
  <rect id="color09" x="120" y="140" width="80" height="80" fill="#fb9199"/>
  <rect id="color02" x="210" y="30" width="80" height="80" fill="#89e19c"/>
  <rect id="color10" x="210" y="140" width="80" height="80" fill="#8de19f"/>
  <rect id="color03" x="300" y="30" width="80" height="80" fill="#fbdf90"/>
  <rect id="color11" x="300" y="140" width="80" height="80" fill="#ffe28e"/>
  <rect id="color04" x="390" y="30" width="80" height="80" fill="#a7bdfb"/>
  <rect id="color12" x="390" y="140" width="80" height="80" fill="#afc3fb"/>
  <rect id="color05" x="480" y="30" width="80" height="80" fill="#d990cd"/>
  <rect id="color13" x="480" y="140" width="80" height="80" fill="#df95d3"/>
  <rect id="color06" x="570" y="30" width="80" height="80" fill="#81d4ee"/>
  <rect id="color14" x="570" y="140" width="80" height="80" fill="#81d4ee"/>
  <rect id="color07" x="660" y="30" width="80" height="80" fill="#d6d6d6"/>
  <rect id="color15" x="660" y="140" width="80" height="80" fill="#f0f0f0"/>
</svg>