<svg id="previews" width="770" height="250" version="1.1" xmlns="http://www.w3.org/2000/svg">
  <rect id="background" x="-2.5e-7" y="-1.3549e-6" width="770" height="250" fill="#000000"/>
  <rect id="color00" x="30" y="30" width="80" height="80" fill="#181818"/>
  <rect id="color08" x="30" y="140" width="80" height="80" fill="#2f2f2f"/>
  <rect id="color01" x="120" y="30" width="80" height="80" fill="#e05f65"/>
  <rect id="color09" x="120" y="140" width="80" height="80" fill="#fc7b81"/>
  <rect id="color02" x="210" y="30" width="80" height="80" fill="#78dba9"/>
  <rect id="color10" x="210" y="140" width="80" height="80" fill="#94f7c5"/>
  <rect id="color03" x="300" y="30" width="80" height="80" fill="#f1cf8a"/>
  <rect id="color11" x="300" y="140" width="80" height="80" fill="#ffeba6"/>
  <rect id="color04" x="390" y="30" width="80" height="80" fill="#70a5eb"/>
  <rect id="color12" x="390" y="140" width="80" height="80" fill="#8cc1ff"/>
  <rect id="color05" x="480" y="30" width="80" height="80" fill="#c68aee"/>
  <rect id="color13" x="480" y="140" width="80" height="80" fill="#e2a6ff"/>
  <rect id="color06" x="570" y="30" width="80" height="80" fill="#74bee9"/>
  <rect id="color14" x="570" y="140" width="80" height="80" fill="#90daff"/>
  <rect id="color07" x="660" y="30" width="80" height="80" fill="#dddddd"/>
  <rect id="color15" x="660" y="140" width="80" height="80" fill="#ffffff"/>
</svg>