<svg id="previews" width="770" height="250" version="1.1" xmlns="http://www.w3.org/2000/svg">
  <rect id="background" x="-2.5e-7" y="-1.3549e-6" width="770" height="250" fill="#37342e"/>
  <rect id="color00" x="30" y="30" width="80" height="80" fill="#3e3a34"/>
  <rect id="color08" x="30" y="140" width="80" height="80" fill="#534f48"/>
  <rect id="color01" x="120" y="30" width="80" height="80" fill="#bb6147"/>
  <rect id="color09" x="120" y="140" width="80" height="80" fill="#cf755b"/>
  <rect id="color02" x="210" y="30" width="80" height="80" fill="#6d7963"/>
  <rect id="color10" x="210" y="140" width="80" height="80" fill="#818d77"/>
  <rect id="color03" x="300" y="30" width="80" height="80" fill="#c39f41"/>
  <rect id="color11" x="300" y="140" width="80" height="80" fill="#d7b355"/>
  <rect id="color04" x="390" y="30" width="80" height="80" fill="#5b8089"/>
  <rect id="color12" x="390" y="140" width="80" height="80" fill="#6f949d"/>
  <rect id="color05" x="480" y="30" width="80" height="80" fill="#82708a"/>
  <rect id="color13" x="480" y="140" width="80" height="80" fill="#96849e"/>
  <rect id="color06" x="570" y="30" width="80" height="80" fill="#5b897d"/>
  <rect id="color14" x="570" y="140" width="80" height="80" fill="#6f9d91"/>
  <rect id="color07" x="660" y="30" width="80" height="80" fill="#c6c1bb"/>
  <rect id="color15" x="660" y="140" width="80" height="80" fill="#e1e0db"/>
</svg>