<svg id="previews" width="770" height="250" version="1.1" xmlns="http://www.w3.org/2000/svg">
  <rect id="background" x="-2.5e-7" y="-1.3549e-6" width="770" height="250" fill="#fef2dc"/>
  <rect id="color00" x="30" y="30" width="80" height="80" fill="#edd7b1"/>
  <rect id="color08" x="30" y="140" width="80" height="80" fill="#c2a97d"/>
  <rect id="color01" x="120" y="30" width="80" height="80" fill="#f33e11"/>
  <rect id="color09" x="120" y="140" width="80" height="80" fill="#f37555"/>
  <rect id="color02" x="210" y="30" width="80" height="80" fill="#b8de91"/>
  <rect id="color10" x="210" y="140" width="80" height="80" fill="#cef1a9"/>
  <rect id="color03" x="300" y="30" width="80" height="80" fill="#fdab3d"/>
  <rect id="color11" x="300" y="140" width="80" height="80" fill="#fdc172"/>
  <rect id="color04" x="390" y="30" width="80" height="80" fill="#43cfd7"/>
  <rect id="color12" x="390" y="140" width="80" height="80" fill="#79dce2"/>
  <rect id="color05" x="480" y="30" width="80" height="80" fill="#723174"/>
  <rect id="color13" x="480" y="140" width="80" height="80" fill="#8c558e"/>
  <rect id="color06" x="570" y="30" width="80" height="80" fill="#279e76"/>
  <rect id="color14" x="570" y="140" width="80" height="80" fill="#4bb390"/>
  <rect id="color07" x="660" y="30" width="80" height="80" fill="#4a4338"/>
  <rect id="color15" x="660" y="140" width="80" height="80" fill="#686157"/>
</svg>