<svg id="previews" width="770" height="250" version="1.1" xmlns="http://www.w3.org/2000/svg">
  <rect id="background" x="-2.5e-7" y="-1.3549e-6" width="770" height="250" fill="#202028"/>
  <rect id="color00" x="30" y="30" width="80" height="80" fill="#222233"/>
  <rect id="color08" x="30" y="140" width="80" height="80" fill="#333344"/>
  <rect id="color01" x="120" y="30" width="80" height="80" fill="#884444"/>
  <rect id="color09" x="120" y="140" width="80" height="80" fill="#ee6666"/>
  <rect id="color02" x="210" y="30" width="80" height="80" fill="#777755"/>
  <rect id="color10" x="210" y="140" width="80" height="80" fill="#aaaa88"/>
  <rect id="color03" x="300" y="30" width="80" height="80" fill="#eeaa55"/>
  <rect id="color11" x="300" y="140" width="80" height="80" fill="#eecc99"/>
  <rect id="color04" x="390" y="30" width="80" height="80" fill="#555577"/>
  <rect id="color12" x="390" y="140" width="80" height="80" fill="#99aabb"/>
  <rect id="color05" x="480" y="30" width="80" height="80" fill="#885577"/>
  <rect id="color13" x="480" y="140" width="80" height="80" fill="#bb8899"/>
  <rect id="color06" x="570" y="30" width="80" height="80" fill="#668899"/>
  <rect id="color14" x="570" y="140" width="80" height="80" fill="#aaccbb"/>
  <rect id="color07" x="660" y="30" width="80" height="80" fill="#cccccc"/>
  <rect id="color15" x="660" y="140" width="80" height="80" fill="#f9f9f9"/>
</svg>