<svg id="previews" width="770" height="250" version="1.1" xmlns="http://www.w3.org/2000/svg">
  <rect id="background" x="-2.5e-7" y="-1.3549e-6" width="770" height="250" fill="#282a36"/>
  <rect id="color00" x="30" y="30" width="80" height="80" fill="#21222c"/>
  <rect id="color08" x="30" y="140" width="80" height="80" fill="#4d4d4d"/>
  <rect id="color01" x="120" y="30" width="80" height="80" fill="#ff5555"/>
  <rect id="color09" x="120" y="140" width="80" height="80" fill="#ff6e67"/>
  <rect id="color02" x="210" y="30" width="80" height="80" fill="#50fa7b"/>
  <rect id="color10" x="210" y="140" width="80" height="80" fill="#5af78e"/>
  <rect id="color03" x="300" y="30" width="80" height="80" fill="#f1fa8c"/>
  <rect id="color11" x="300" y="140" width="80" height="80" fill="#f4f99d"/>
  <rect id="color04" x="390" y="30" width="80" height="80" fill="#bd93f9"/>
  <rect id="color12" x="390" y="140" width="80" height="80" fill="#caa9fa"/>
  <rect id="color05" x="480" y="30" width="80" height="80" fill="#ff79c6"/>
  <rect id="color13" x="480" y="140" width="80" height="80" fill="#ff92d0"/>
  <rect id="color06" x="570" y="30" width="80" height="80" fill="#8be9fd"/>
  <rect id="color14" x="570" y="140" width="80" height="80" fill="#9aedfe"/>
  <rect id="color07" x="660" y="30" width="80" height="80" fill="#bfbfbf"/>
  <rect id="color15" x="660" y="140" width="80" height="80" fill="#e6e6e6"/>
</svg>