<svg id="previews" width="770" height="250" version="1.1" xmlns="http://www.w3.org/2000/svg">
  <rect id="background" x="-2.5e-7" y="-1.3549e-6" width="770" height="250" fill="#1b1e21"/>
  <rect id="color00" x="30" y="30" width="80" height="80" fill="#323232"/>
  <rect id="color08" x="30" y="140" width="80" height="80" fill="#545454"/>
  <rect id="color01" x="120" y="30" width="80" height="80" fill="#7f4f5f"/>
  <rect id="color09" x="120" y="140" width="80" height="80" fill="#c0728c"/>
  <rect id="color02" x="210" y="30" width="80" height="80" fill="#69816e"/>
  <rect id="color10" x="210" y="140" width="80" height="80" fill="#88a08e"/>
  <rect id="color03" x="300" y="30" width="80" height="80" fill="#c79f7d"/>
  <rect id="color11" x="300" y="140" width="80" height="80" fill="#e0bd9f"/>
  <rect id="color04" x="390" y="30" width="80" height="80" fill="#627184"/>
  <rect id="color12" x="390" y="140" width="80" height="80" fill="#96a1b2"/>
  <rect id="color05" x="480" y="30" width="80" height="80" fill="#706389"/>
  <rect id="color13" x="480" y="140" width="80" height="80" fill="#a194ba"/>
  <rect id="color06" x="570" y="30" width="80" height="80" fill="#50757e"/>
  <rect id="color14" x="570" y="140" width="80" height="80" fill="#68939e"/>
  <rect id="color07" x="660" y="30" width="80" height="80" fill="#757575"/>
  <rect id="color15" x="660" y="140" width="80" height="80" fill="#b5b5b5"/>
</svg>