<svg id="previews" width="770" height="250" version="1.1" xmlns="http://www.w3.org/2000/svg">
  <rect id="background" x="-2.5e-7" y="-1.3549e-6" width="770" height="250" fill="#0f1219"/>
  <rect id="color00" x="30" y="30" width="80" height="80" fill="#181f29"/>
  <rect id="color08" x="30" y="140" width="80" height="80" fill="#3e5069"/>
  <rect id="color01" x="120" y="30" width="80" height="80" fill="#e86363"/>
  <rect id="color09" x="120" y="140" width="80" height="80" fill="#ec7e7e"/>
  <rect id="color02" x="210" y="30" width="80" height="80" fill="#88e362"/>
  <rect id="color10" x="210" y="140" width="80" height="80" fill="#9fe880"/>
  <rect id="color03" x="300" y="30" width="80" height="80" fill="#e6b363"/>
  <rect id="color11" x="300" y="140" width="80" height="80" fill="#ebc282"/>
  <rect id="color04" x="390" y="30" width="80" height="80" fill="#5fc2e4"/>
  <rect id="color12" x="390" y="140" width="80" height="80" fill="#7ecee9"/>
  <rect id="color05" x="480" y="30" width="80" height="80" fill="#cb61e2"/>
  <rect id="color13" x="480" y="140" width="80" height="80" fill="#d57fe8"/>
  <rect id="color06" x="570" y="30" width="80" height="80" fill="#4cd1ae"/>
  <rect id="color14" x="570" y="140" width="80" height="80" fill="#68d8bb"/>
  <rect id="color07" x="660" y="30" width="80" height="80" fill="#555555"/>
  <rect id="color15" x="660" y="140" width="80" height="80" fill="#eeeeee"/>
</svg>