<svg id="previews" width="770" height="250" version="1.1" xmlns="http://www.w3.org/2000/svg">
  <rect id="background" x="-2.5e-7" y="-1.3549e-6" width="770" height="250" fill="#0e181a"/>
  <rect id="color00" x="30" y="30" width="80" height="80" fill="#090f10"/>
  <rect id="color08" x="30" y="140" width="80" height="80" fill="#666666"/>
  <rect id="color01" x="120" y="30" width="80" height="80" fill="#494a3e"/>
  <rect id="color09" x="120" y="140" width="80" height="80" fill="#656756"/>
  <rect id="color02" x="210" y="30" width="80" height="80" fill="#9c5033"/>
  <rect id="color10" x="210" y="140" width="80" height="80" fill="#b66242"/>
  <rect id="color03" x="300" y="30" width="80" height="80" fill="#b04f41"/>
  <rect id="color11" x="300" y="140" width="80" height="80" fill="#cb6253"/>
  <rect id="color04" x="390" y="30" width="80" height="80" fill="#a95e4f"/>
  <rect id="color12" x="390" y="140" width="80" height="80" fill="#bc6b5b"/>
  <rect id="color05" x="480" y="30" width="80" height="80" fill="#6d826f"/>
  <rect id="color13" x="480" y="140" width="80" height="80" fill="#778978"/>
  <rect id="color06" x="570" y="30" width="80" height="80" fill="#ca8d67"/>
  <rect id="color14" x="570" y="140" width="80" height="80" fill="#d99a74"/>
  <rect id="color07" x="660" y="30" width="80" height="80" fill="#d8a396"/>
  <rect id="color15" x="660" y="140" width="80" height="80" fill="#e3b0a3"/>
</svg>