<svg id="previews" width="770" height="250" version="1.1" xmlns="http://www.w3.org/2000/svg">
  <rect id="background" x="-2.5e-7" y="-1.3549e-6" width="770" height="250" fill="#151b1a"/>
  <rect id="color00" x="30" y="30" width="80" height="80" fill="#2e2b38"/>
  <rect id="color08" x="30" y="140" width="80" height="80" fill="#474159"/>
  <rect id="color01" x="120" y="30" width="80" height="80" fill="#984e66"/>
  <rect id="color09" x="120" y="140" width="80" height="80" fill="#a86d56"/>
  <rect id="color02" x="210" y="30" width="80" height="80" fill="#7a8c54"/>
  <rect id="color10" x="210" y="140" width="80" height="80" fill="#9fb274"/>
  <rect id="color03" x="300" y="30" width="80" height="80" fill="#9e6438"/>
  <rect id="color11" x="300" y="140" width="80" height="80" fill="#b29f5e"/>
  <rect id="color04" x="390" y="30" width="80" height="80" fill="#395667"/>
  <rect id="color12" x="390" y="140" width="80" height="80" fill="#507a91"/>
  <rect id="color05" x="480" y="30" width="80" height="80" fill="#9d916b"/>
  <rect id="color13" x="480" y="140" width="80" height="80" fill="#b89855"/>
  <rect id="color06" x="570" y="30" width="80" height="80" fill="#536556"/>
  <rect id="color14" x="570" y="140" width="80" height="80" fill="#7e9982"/>
  <rect id="color07" x="660" y="30" width="80" height="80" fill="#828181"/>
  <rect id="color15" x="660" y="140" width="80" height="80" fill="#bdbda4"/>
</svg>