<svg id="previews" width="770" height="250" version="1.1" xmlns="http://www.w3.org/2000/svg">
  <rect id="background" x="-2.5e-7" y="-1.3549e-6" width="770" height="250" fill="#181f21"/>
  <rect id="color00" x="30" y="30" width="80" height="80" fill="#22292b"/>
  <rect id="color08" x="30" y="140" width="80" height="80" fill="#3b4244"/>
  <rect id="color01" x="120" y="30" width="80" height="80" fill="#e06e6e"/>
  <rect id="color09" x="120" y="140" width="80" height="80" fill="#ef7d7d"/>
  <rect id="color02" x="210" y="30" width="80" height="80" fill="#8ccf7e"/>
  <rect id="color10" x="210" y="140" width="80" height="80" fill="#9bdead"/>
  <rect id="color03" x="300" y="30" width="80" height="80" fill="#e5c76b"/>
  <rect id="color11" x="300" y="140" width="80" height="80" fill="#f4d67a"/>
  <rect id="color04" x="390" y="30" width="80" height="80" fill="#67b0e8"/>
  <rect id="color12" x="390" y="140" width="80" height="80" fill="#6cb5ed"/>
  <rect id="color05" x="480" y="30" width="80" height="80" fill="#c47fd5"/>
  <rect id="color13" x="480" y="140" width="80" height="80" fill="#ce89df"/>
  <rect id="color06" x="570" y="30" width="80" height="80" fill="#6da4cd"/>
  <rect id="color14" x="570" y="140" width="80" height="80" fill="#67cbe7"/>
  <rect id="color07" x="660" y="30" width="80" height="80" fill="#b3b9b8"/>
  <rect id="color15" x="660" y="140" width="80" height="80" fill="#bdc3c2"/>
</svg>