<svg id="previews" width="770" height="250" version="1.1" xmlns="http://www.w3.org/2000/svg">
  <rect id="background" x="-2.5e-7" y="-1.3549e-6" width="770" height="250" fill="#2a2e35"/>
  <rect id="color00" x="30" y="30" width="80" height="80" fill="#5a5a5a"/>
  <rect id="color08" x="30" y="140" width="80" height="80" fill="#8c8c8c"/>
  <rect id="color01" x="120" y="30" width="80" height="80" fill="#de8990"/>
  <rect id="color09" x="120" y="140" width="80" height="80" fill="#d0a8ab"/>
  <rect id="color02" x="210" y="30" width="80" height="80" fill="#94daa9"/>
  <rect id="color10" x="210" y="140" width="80" height="80" fill="#bae8d2"/>
  <rect id="color03" x="300" y="30" width="80" height="80" fill="#dee7aa"/>
  <rect id="color11" x="300" y="140" width="80" height="80" fill="#d7c96b"/>
  <rect id="color04" x="390" y="30" width="80" height="80" fill="#9cdbdf"/>
  <rect id="color12" x="390" y="140" width="80" height="80" fill="#6cb4dd"/>
  <rect id="color05" x="480" y="30" width="80" height="80" fill="#cca8c9"/>
  <rect id="color13" x="480" y="140" width="80" height="80" fill="#db79bf"/>
  <rect id="color06" x="570" y="30" width="80" height="80" fill="#9ad4c8"/>
  <rect id="color14" x="570" y="140" width="80" height="80" fill="#59b0b2"/>
  <rect id="color07" x="660" y="30" width="80" height="80" fill="#e1e1e1"/>
  <rect id="color15" x="660" y="140" width="80" height="80" fill="#f0f0f0"/>
</svg>