<svg id="previews" width="770" height="250" version="1.1" xmlns="http://www.w3.org/2000/svg">
  <rect id="background" x="-2.5e-7" y="-1.3549e-6" width="770" height="250" fill="#30303a"/>
  <rect id="color00" x="30" y="30" width="80" height="80" fill="#4a4a4a"/>
  <rect id="color08" x="30" y="140" width="80" height="80" fill="#777777"/>
  <rect id="color01" x="120" y="30" width="80" height="80" fill="#df6f6f"/>
  <rect id="color09" x="120" y="140" width="80" height="80" fill="#eba8a8"/>
  <rect id="color02" x="210" y="30" width="80" height="80" fill="#6fdfa4"/>
  <rect id="color10" x="210" y="140" width="80" height="80" fill="#a8ebc8"/>
  <rect id="color03" x="300" y="30" width="80" height="80" fill="#dfdc6f"/>
  <rect id="color11" x="300" y="140" width="80" height="80" fill="#ebeaa8"/>
  <rect id="color04" x="390" y="30" width="80" height="80" fill="#6fa5df"/>
  <rect id="color12" x="390" y="140" width="80" height="80" fill="#a8c9eb"/>
  <rect id="color05" x="480" y="30" width="80" height="80" fill="#846fdf"/>
  <rect id="color13" x="480" y="140" width="80" height="80" fill="#b5a8eb"/>
  <rect id="color06" x="570" y="30" width="80" height="80" fill="#6fcadf"/>
  <rect id="color14" x="570" y="140" width="80" height="80" fill="#a6e6eb"/>
  <rect id="color07" x="660" y="30" width="80" height="80" fill="#aaaaaa"/>
  <rect id="color15" x="660" y="140" width="80" height="80" fill="#c3c3c3"/>
</svg>