<svg id="previews" width="770" height="250" version="1.1" xmlns="http://www.w3.org/2000/svg">
  <rect id="background" x="-2.5e-7" y="-1.3549e-6" width="770" height="250" fill="#1f2d3a"/>
  <rect id="color00" x="30" y="30" width="80" height="80" fill="#2c3e50"/>
  <rect id="color08" x="30" y="140" width="80" height="80" fill="#34495e"/>
  <rect id="color01" x="120" y="30" width="80" height="80" fill="#c0392b"/>
  <rect id="color09" x="120" y="140" width="80" height="80" fill="#e74c3c"/>
  <rect id="color02" x="210" y="30" width="80" height="80" fill="#27ae60"/>
  <rect id="color10" x="210" y="140" width="80" height="80" fill="#2ecc71"/>
  <rect id="color03" x="300" y="30" width="80" height="80" fill="#f39c12"/>
  <rect id="color11" x="300" y="140" width="80" height="80" fill="#f1c40f"/>
  <rect id="color04" x="390" y="30" width="80" height="80" fill="#2980b9"/>
  <rect id="color12" x="390" y="140" width="80" height="80" fill="#3498db"/>
  <rect id="color05" x="480" y="30" width="80" height="80" fill="#8e44ad"/>
  <rect id="color13" x="480" y="140" width="80" height="80" fill="#9b59b6"/>
  <rect id="color06" x="570" y="30" width="80" height="80" fill="#16a085"/>
  <rect id="color14" x="570" y="140" width="80" height="80" fill="#2aa198"/>
  <rect id="color07" x="660" y="30" width="80" height="80" fill="#bdc3c7"/>
  <rect id="color15" x="660" y="140" width="80" height="80" fill="#ecf0f1"/>
</svg>