<svg id="previews" width="770" height="250" version="1.1" xmlns="http://www.w3.org/2000/svg">
  <rect id="background" x="-2.5e-7" y="-1.3549e-6" width="770" height="250" fill="#2b2b2b"/>
  <rect id="color00" x="30" y="30" width="80" height="80" fill="#444444"/>
  <rect id="color08" x="30" y="140" width="80" height="80" fill="#505050"/>
  <rect id="color01" x="120" y="30" width="80" height="80" fill="#cd3131"/>
  <rect id="color09" x="120" y="140" width="80" height="80" fill="#f14c4c"/>
  <rect id="color02" x="210" y="30" width="80" height="80" fill="#0dbc79"/>
  <rect id="color10" x="210" y="140" width="80" height="80" fill="#23d18b"/>
  <rect id="color03" x="300" y="30" width="80" height="80" fill="#e5e510"/>
  <rect id="color11" x="300" y="140" width="80" height="80" fill="#f5f543"/>
  <rect id="color04" x="390" y="30" width="80" height="80" fill="#2472c8"/>
  <rect id="color12" x="390" y="140" width="80" height="80" fill="#3b8eea"/>
  <rect id="color05" x="480" y="30" width="80" height="80" fill="#bc3fbc"/>
  <rect id="color13" x="480" y="140" width="80" height="80" fill="#d670d6"/>
  <rect id="color06" x="570" y="30" width="80" height="80" fill="#11a8cd"/>
  <rect id="color14" x="570" y="140" width="80" height="80" fill="#29b8db"/>
  <rect id="color07" x="660" y="30" width="80" height="80" fill="#e5e5e5"/>
  <rect id="color15" x="660" y="140" width="80" height="80" fill="#f0f0f0"/>
</svg>