<svg id="previews" width="770" height="250" version="1.1" xmlns="http://www.w3.org/2000/svg">
  <rect id="background" x="-2.5e-7" y="-1.3549e-6" width="770" height="250" fill="#193f4b"/>
  <rect id="color00" x="30" y="30" width="80" height="80" fill="#3d3932"/>
  <rect id="color08" x="30" y="140" width="80" height="80" fill="#4d483c"/>
  <rect id="color01" x="120" y="30" width="80" height="80" fill="#865747"/>
  <rect id="color09" x="120" y="140" width="80" height="80" fill="#97aa95"/>
  <rect id="color02" x="210" y="30" width="80" height="80" fill="#5b6850"/>
  <rect id="color10" x="210" y="140" width="80" height="80" fill="#787f5f"/>
  <rect id="color03" x="300" y="30" width="80" height="80" fill="#9e8a65"/>
  <rect id="color11" x="300" y="140" width="80" height="80" fill="#eecf80"/>
  <rect id="color04" x="390" y="30" width="80" height="80" fill="#165986"/>
  <rect id="color12" x="390" y="140" width="80" height="80" fill="#3b889d"/>
  <rect id="color05" x="480" y="30" width="80" height="80" fill="#7db3ba"/>
  <rect id="color13" x="480" y="140" width="80" height="80" fill="#93b9be"/>
  <rect id="color06" x="570" y="30" width="80" height="80" fill="#daab70"/>
  <rect id="color14" x="570" y="140" width="80" height="80" fill="#c6a48c"/>
  <rect id="color07" x="660" y="30" width="80" height="80" fill="#c3c8c6"/>
  <rect id="color15" x="660" y="140" width="80" height="80" fill="#b7d4c8"/>
</svg>