<svg id="previews" width="770" height="250" version="1.1" xmlns="http://www.w3.org/2000/svg">
  <rect id="background" x="-2.5e-7" y="-1.3549e-6" width="770" height="250" fill="#ffffff"/>
  <rect id="color00" x="30" y="30" width="80" height="80" fill="#2f2f2f"/>
  <rect id="color08" x="30" y="140" width="80" height="80" fill="#626262"/>
  <rect id="color01" x="120" y="30" width="80" height="80" fill="#c87f6b"/>
  <rect id="color09" x="120" y="140" width="80" height="80" fill="#e8b1a2"/>
  <rect id="color02" x="210" y="30" width="80" height="80" fill="#6bc87f"/>
  <rect id="color10" x="210" y="140" width="80" height="80" fill="#afe6bb"/>
  <rect id="color03" x="300" y="30" width="80" height="80" fill="#b4c86b"/>
  <rect id="color11" x="300" y="140" width="80" height="80" fill="#d6e69d"/>
  <rect id="color04" x="390" y="30" width="80" height="80" fill="#7f6bc8"/>
  <rect id="color12" x="390" y="140" width="80" height="80" fill="#ac9de0"/>
  <rect id="color05" x="480" y="30" width="80" height="80" fill="#c86bb4"/>
  <rect id="color13" x="480" y="140" width="80" height="80" fill="#e09dd1"/>
  <rect id="color06" x="570" y="30" width="80" height="80" fill="#6bb4c8"/>
  <rect id="color14" x="570" y="140" width="80" height="80" fill="#96d5e6"/>
  <rect id="color07" x="660" y="30" width="80" height="80" fill="#c8c8c8"/>
  <rect id="color15" x="660" y="140" width="80" height="80" fill="#f0f0f0"/>
</svg>