<svg id="previews" width="770" height="250" version="1.1" xmlns="http://www.w3.org/2000/svg">
  <rect id="background" x="-2.5e-7" y="-1.3549e-6" width="770" height="250" fill="#0a0f14"/>
  <rect id="color00" x="30" y="30" width="80" height="80" fill="#0a0f14"/>
  <rect id="color08" x="30" y="140" width="80" height="80" fill="#10151b"/>
  <rect id="color01" x="120" y="30" width="80" height="80" fill="#c33027"/>
  <rect id="color09" x="120" y="140" width="80" height="80" fill="#d26939"/>
  <rect id="color02" x="210" y="30" width="80" height="80" fill="#26a98b"/>
  <rect id="color10" x="210" y="140" width="80" height="80" fill="#081f2d"/>
  <rect id="color03" x="300" y="30" width="80" height="80" fill="#edb54b"/>
  <rect id="color11" x="300" y="140" width="80" height="80" fill="#245361"/>
  <rect id="color04" x="390" y="30" width="80" height="80" fill="#195465"/>
  <rect id="color12" x="390" y="140" width="80" height="80" fill="#093748"/>
  <rect id="color05" x="480" y="30" width="80" height="80" fill="#4e5165"/>
  <rect id="color13" x="480" y="140" width="80" height="80" fill="#888ba5"/>
  <rect id="color06" x="570" y="30" width="80" height="80" fill="#33859d"/>
  <rect id="color14" x="570" y="140" width="80" height="80" fill="#599caa"/>
  <rect id="color07" x="660" y="30" width="80" height="80" fill="#98d1ce"/>
  <rect id="color15" x="660" y="140" width="80" height="80" fill="#d3ebe9"/>
</svg>