<svg id="previews" width="770" height="250" version="1.1" xmlns="http://www.w3.org/2000/svg">
  <rect id="background" x="-2.5e-7" y="-1.3549e-6" width="770" height="250" fill="#282828"/>
  <rect id="color00" x="30" y="30" width="80" height="80" fill="#212121"/>
  <rect id="color08" x="30" y="140" width="80" height="80" fill="#928374"/>
  <rect id="color01" x="120" y="30" width="80" height="80" fill="#cc241d"/>
  <rect id="color09" x="120" y="140" width="80" height="80" fill="#fb4934"/>
  <rect id="color02" x="210" y="30" width="80" height="80" fill="#98971a"/>
  <rect id="color10" x="210" y="140" width="80" height="80" fill="#b8bb26"/>
  <rect id="color03" x="300" y="30" width="80" height="80" fill="#d79921"/>
  <rect id="color11" x="300" y="140" width="80" height="80" fill="#fabd2f"/>
  <rect id="color04" x="390" y="30" width="80" height="80" fill="#458588"/>
  <rect id="color12" x="390" y="140" width="80" height="80" fill="#83a598"/>
  <rect id="color05" x="480" y="30" width="80" height="80" fill="#b16286"/>
  <rect id="color13" x="480" y="140" width="80" height="80" fill="#d3869b"/>
  <rect id="color06" x="570" y="30" width="80" height="80" fill="#689d6a"/>
  <rect id="color14" x="570" y="140" width="80" height="80" fill="#8ec07c"/>
  <rect id="color07" x="660" y="30" width="80" height="80" fill="#a89984"/>
  <rect id="color15" x="660" y="140" width="80" height="80" fill="#ebdbb2"/>
</svg>