<svg id="previews" width="770" height="250" version="1.1" xmlns="http://www.w3.org/2000/svg">
  <rect id="background" x="-2.5e-7" y="-1.3549e-6" width="770" height="250" fill="#fbf1c7"/>
  <rect id="color00" x="30" y="30" width="80" height="80" fill="#fdf4c1"/>
  <rect id="color08" x="30" y="140" width="80" height="80" fill="#928374"/>
  <rect id="color01" x="120" y="30" width="80" height="80" fill="#cc241d"/>
  <rect id="color09" x="120" y="140" width="80" height="80" fill="#9d0006"/>
  <rect id="color02" x="210" y="30" width="80" height="80" fill="#98971a"/>
  <rect id="color10" x="210" y="140" width="80" height="80" fill="#79740e"/>
  <rect id="color03" x="300" y="30" width="80" height="80" fill="#d79921"/>
  <rect id="color11" x="300" y="140" width="80" height="80" fill="#b57614"/>
  <rect id="color04" x="390" y="30" width="80" height="80" fill="#458588"/>
  <rect id="color12" x="390" y="140" width="80" height="80" fill="#076678"/>
  <rect id="color05" x="480" y="30" width="80" height="80" fill="#b16286"/>
  <rect id="color13" x="480" y="140" width="80" height="80" fill="#8f3f71"/>
  <rect id="color06" x="570" y="30" width="80" height="80" fill="#689d6a"/>
  <rect id="color14" x="570" y="140" width="80" height="80" fill="#427b58"/>
  <rect id="color07" x="660" y="30" width="80" height="80" fill="#7c6f64"/>
  <rect id="color15" x="660" y="140" width="80" height="80" fill="#3c3836"/>
</svg>