<svg id="previews" width="770" height="250" version="1.1" xmlns="http://www.w3.org/2000/svg">
  <rect id="background" x="-2.5e-7" y="-1.3549e-6" width="770" height="250" fill="#181512"/>
  <rect id="color00" x="30" y="30" width="80" height="80" fill="#3b444f"/>
  <rect id="color08" x="30" y="140" width="80" height="80" fill="#4a585a"/>
  <rect id="color01" x="120" y="30" width="80" height="80" fill="#cd546c"/>
  <rect id="color09" x="120" y="140" width="80" height="80" fill="#ef545f"/>
  <rect id="color02" x="210" y="30" width="80" height="80" fill="#a5af86"/>
  <rect id="color10" x="210" y="140" width="80" height="80" fill="#bdc79e"/>
  <rect id="color03" x="300" y="30" width="80" height="80" fill="#cd7860"/>
  <rect id="color11" x="300" y="140" width="80" height="80" fill="#e88773"/>
  <rect id="color04" x="390" y="30" width="80" height="80" fill="#7a9388"/>
  <rect id="color12" x="390" y="140" width="80" height="80" fill="#94b1a3"/>
  <rect id="color05" x="480" y="30" width="80" height="80" fill="#75434c"/>
  <rect id="color13" x="480" y="140" width="80" height="80" fill="#bb6c73"/>
  <rect id="color06" x="570" y="30" width="80" height="80" fill="#767d75"/>
  <rect id="color14" x="570" y="140" width="80" height="80" fill="#9da69e"/>
  <rect id="color07" x="660" y="30" width="80" height="80" fill="#c2c2a8"/>
  <rect id="color15" x="660" y="140" width="80" height="80" fill="#dbdac1"/>
</svg>