<svg id="previews" width="770" height="250" version="1.1" xmlns="http://www.w3.org/2000/svg">
  <rect id="background" x="-2.5e-7" y="-1.3549e-6" width="770" height="250" fill="#0d0b0d"/>
  <rect id="color00" x="30" y="30" width="80" height="80" fill="#1e2f41"/>
  <rect id="color08" x="30" y="140" width="80" height="80" fill="#906b61"/>
  <rect id="color01" x="120" y="30" width="80" height="80" fill="#84252c"/>
  <rect id="color09" x="120" y="140" width="80" height="80" fill="#c92831"/>
  <rect id="color02" x="210" y="30" width="80" height="80" fill="#87a581"/>
  <rect id="color10" x="210" y="140" width="80" height="80" fill="#c0bd86"/>
  <rect id="color03" x="300" y="30" width="80" height="80" fill="#d6c08f"/>
  <rect id="color11" x="300" y="140" width="80" height="80" fill="#f1deb7"/>
  <rect id="color04" x="390" y="30" width="80" height="80" fill="#143a58"/>
  <rect id="color12" x="390" y="140" width="80" height="80" fill="#1a4c72"/>
  <rect id="color05" x="480" y="30" width="80" height="80" fill="#62162e"/>
  <rect id="color13" x="480" y="140" width="80" height="80" fill="#7c1c3b"/>
  <rect id="color06" x="570" y="30" width="80" height="80" fill="#566f6e"/>
  <rect id="color14" x="570" y="140" width="80" height="80" fill="#659a91"/>
  <rect id="color07" x="660" y="30" width="80" height="80" fill="#b99f8d"/>
  <rect id="color15" x="660" y="140" width="80" height="80" fill="#f3dcc6"/>
</svg>