<svg id="previews" width="770" height="250" version="1.1" xmlns="http://www.w3.org/2000/svg">
  <rect id="background" x="-2.5e-7" y="-1.3549e-6" width="770" height="250" fill="#161820"/>
  <rect id="color00" x="30" y="30" width="80" height="80" fill="#2e303e"/>
  <rect id="color08" x="30" y="140" width="80" height="80" fill="#6c6f93"/>
  <rect id="color01" x="120" y="30" width="80" height="80" fill="#e95378"/>
  <rect id="color09" x="120" y="140" width="80" height="80" fill="#e61f44"/>
  <rect id="color02" x="210" y="30" width="80" height="80" fill="#a6e22e"/>
  <rect id="color10" x="210" y="140" width="80" height="80" fill="#9bc42e"/>
  <rect id="color03" x="300" y="30" width="80" height="80" fill="#fab98e"/>
  <rect id="color11" x="300" y="140" width="80" height="80" fill="#f09483"/>
  <rect id="color04" x="390" y="30" width="80" height="80" fill="#25b0bc"/>
  <rect id="color12" x="390" y="140" width="80" height="80" fill="#00a8c6"/>
  <rect id="color05" x="480" y="30" width="80" height="80" fill="#b877db"/>
  <rect id="color13" x="480" y="140" width="80" height="80" fill="#b877db"/>
  <rect id="color06" x="570" y="30" width="80" height="80" fill="#267fb5"/>
  <rect id="color14" x="570" y="140" width="80" height="80" fill="#5678e6"/>
  <rect id="color07" x="660" y="30" width="80" height="80" fill="#bbbbbb"/>
  <rect id="color15" x="660" y="140" width="80" height="80" fill="#eeeeee"/>
</svg>