<svg id="previews" width="770" height="250" version="1.1" xmlns="http://www.w3.org/2000/svg">
  <rect id="background" x="-2.5e-7" y="-1.3549e-6" width="770" height="250" fill="#001f25"/>
  <rect id="color00" x="30" y="30" width="80" height="80" fill="#002930"/>
  <rect id="color08" x="30" y="140" width="80" height="80" fill="#00323b"/>
  <rect id="color01" x="120" y="30" width="80" height="80" fill="#e00146"/>
  <rect id="color09" x="120" y="140" width="80" height="80" fill="#f5014d"/>
  <rect id="color02" x="210" y="30" width="80" height="80" fill="#088064"/>
  <rect id="color10" x="210" y="140" width="80" height="80" fill="#099474"/>
  <rect id="color03" x="300" y="30" width="80" height="80" fill="#aa623d"/>
  <rect id="color11" x="300" y="140" width="80" height="80" fill="#bf6e45"/>
  <rect id="color04" x="390" y="30" width="80" height="80" fill="#0b3440"/>
  <rect id="color12" x="390" y="140" width="80" height="80" fill="#0e4454"/>
  <rect id="color05" x="480" y="30" width="80" height="80" fill="#6a152e"/>
  <rect id="color13" x="480" y="140" width="80" height="80" fill="#801937"/>
  <rect id="color06" x="570" y="30" width="80" height="80" fill="#043c3b"/>
  <rect id="color14" x="570" y="140" width="80" height="80" fill="#055250"/>
  <rect id="color07" x="660" y="30" width="80" height="80" fill="#faeee2"/>
  <rect id="color15" x="660" y="140" width="80" height="80" fill="#fff3e7"/>
</svg>