<svg id="previews" width="770" height="250" version="1.1" xmlns="http://www.w3.org/2000/svg">
  <rect id="background" x="-2.5e-7" y="-1.3549e-6" width="770" height="250" fill="#29272c"/>
  <rect id="color00" x="30" y="30" width="80" height="80" fill="#201e21"/>
  <rect id="color08" x="30" y="140" width="80" height="80" fill="#464148"/>
  <rect id="color01" x="120" y="30" width="80" height="80" fill="#e47464"/>
  <rect id="color09" x="120" y="140" width="80" height="80" fill="#f08e7f"/>
  <rect id="color02" x="210" y="30" width="80" height="80" fill="#b3e464"/>
  <rect id="color10" x="210" y="140" width="80" height="80" fill="#c5f07f"/>
  <rect id="color03" x="300" y="30" width="80" height="80" fill="#e4a164"/>
  <rect id="color11" x="300" y="140" width="80" height="80" fill="#f0b57f"/>
  <rect id="color04" x="390" y="30" width="80" height="80" fill="#649ee4"/>
  <rect id="color12" x="390" y="140" width="80" height="80" fill="#7fb2f0"/>
  <rect id="color05" x="480" y="30" width="80" height="80" fill="#e464af"/>
  <rect id="color13" x="480" y="140" width="80" height="80" fill="#f07fc1"/>
  <rect id="color06" x="570" y="30" width="80" height="80" fill="#64e4be"/>
  <rect id="color14" x="570" y="140" width="80" height="80" fill="#7ff0ce"/>
  <rect id="color07" x="660" y="30" width="80" height="80" fill="#66606b"/>
  <rect id="color15" x="660" y="140" width="80" height="80" fill="#c5c8c6"/>
</svg>