<svg id="previews" width="770" height="250" version="1.1" xmlns="http://www.w3.org/2000/svg">
  <rect id="background" x="-2.5e-7" y="-1.3549e-6" width="770" height="250" fill="#232c31"/>
  <rect id="color00" x="30" y="30" width="80" height="80" fill="#2d3c46"/>
  <rect id="color08" x="30" y="140" width="80" height="80" fill="#425059"/>
  <rect id="color01" x="120" y="30" width="80" height="80" fill="#a54242"/>
  <rect id="color09" x="120" y="140" width="80" height="80" fill="#cc6666"/>
  <rect id="color02" x="210" y="30" width="80" height="80" fill="#8c9440"/>
  <rect id="color10" x="210" y="140" width="80" height="80" fill="#b5bd68"/>
  <rect id="color03" x="300" y="30" width="80" height="80" fill="#de935f"/>
  <rect id="color11" x="300" y="140" width="80" height="80" fill="#f0c674"/>
  <rect id="color04" x="390" y="30" width="80" height="80" fill="#5f819d"/>
  <rect id="color12" x="390" y="140" width="80" height="80" fill="#81a2be"/>
  <rect id="color05" x="480" y="30" width="80" height="80" fill="#85678f"/>
  <rect id="color13" x="480" y="140" width="80" height="80" fill="#b294bb"/>
  <rect id="color06" x="570" y="30" width="80" height="80" fill="#5e8d87"/>
  <rect id="color14" x="570" y="140" width="80" height="80" fill="#8abeb7"/>
  <rect id="color07" x="660" y="30" width="80" height="80" fill="#6c7a80"/>
  <rect id="color15" x="660" y="140" width="80" height="80" fill="#c5c8c6"/>
</svg>