<svg id="previews" width="770" height="250" version="1.1" xmlns="http://www.w3.org/2000/svg">
  <rect id="background" x="-2.5e-7" y="-1.3549e-6" width="770" height="250" fill="#161821"/>
  <rect id="color00" x="30" y="30" width="80" height="80" fill="#161821"/>
  <rect id="color08" x="30" y="140" width="80" height="80" fill="#6b7089"/>
  <rect id="color01" x="120" y="30" width="80" height="80" fill="#e27878"/>
  <rect id="color09" x="120" y="140" width="80" height="80" fill="#e98989"/>
  <rect id="color02" x="210" y="30" width="80" height="80" fill="#b4be82"/>
  <rect id="color10" x="210" y="140" width="80" height="80" fill="#c0ca8e"/>
  <rect id="color03" x="300" y="30" width="80" height="80" fill="#e2a478"/>
  <rect id="color11" x="300" y="140" width="80" height="80" fill="#e9b189"/>
  <rect id="color04" x="390" y="30" width="80" height="80" fill="#84a0c6"/>
  <rect id="color12" x="390" y="140" width="80" height="80" fill="#91acd1"/>
  <rect id="color05" x="480" y="30" width="80" height="80" fill="#a093c7"/>
  <rect id="color13" x="480" y="140" width="80" height="80" fill="#ada0d3"/>
  <rect id="color06" x="570" y="30" width="80" height="80" fill="#89b8c2"/>
  <rect id="color14" x="570" y="140" width="80" height="80" fill="#95c4ce"/>
  <rect id="color07" x="660" y="30" width="80" height="80" fill="#c6c8d1"/>
  <rect id="color15" x="660" y="140" width="80" height="80" fill="#d2d4de"/>
</svg>