<svg id="previews" width="770" height="250" version="1.1" xmlns="http://www.w3.org/2000/svg">
  <rect id="background" x="-2.5e-7" y="-1.3549e-6" width="770" height="250" fill="#0b0f10"/>
  <rect id="color00" x="30" y="30" width="80" height="80" fill="#131718"/>
  <rect id="color08" x="30" y="140" width="80" height="80" fill="#151a1c"/>
  <rect id="color01" x="120" y="30" width="80" height="80" fill="#df5b61"/>
  <rect id="color09" x="120" y="140" width="80" height="80" fill="#ee6a70"/>
  <rect id="color02" x="210" y="30" width="80" height="80" fill="#87c7a1"/>
  <rect id="color10" x="210" y="140" width="80" height="80" fill="#96d6b0"/>
  <rect id="color03" x="300" y="30" width="80" height="80" fill="#de8f78"/>
  <rect id="color11" x="300" y="140" width="80" height="80" fill="#ffb29b"/>
  <rect id="color04" x="390" y="30" width="80" height="80" fill="#6791c9"/>
  <rect id="color12" x="390" y="140" width="80" height="80" fill="#7ba5dd"/>
  <rect id="color05" x="480" y="30" width="80" height="80" fill="#bc83e3"/>
  <rect id="color13" x="480" y="140" width="80" height="80" fill="#cb92f2"/>
  <rect id="color06" x="570" y="30" width="80" height="80" fill="#70b9cc"/>
  <rect id="color14" x="570" y="140" width="80" height="80" fill="#7fc8db"/>
  <rect id="color07" x="660" y="30" width="80" height="80" fill="#c4c4c4"/>
  <rect id="color15" x="660" y="140" width="80" height="80" fill="#cccccc"/>
</svg>