<svg id="previews" width="770" height="250" version="1.1" xmlns="http://www.w3.org/2000/svg">
  <rect id="background" x="-2.5e-7" y="-1.3549e-6" width="770" height="250" fill="#1f1f28"/>
  <rect id="color00" x="30" y="30" width="80" height="80" fill="#090618"/>
  <rect id="color08" x="30" y="140" width="80" height="80" fill="#727169"/>
  <rect id="color01" x="120" y="30" width="80" height="80" fill="#c34043"/>
  <rect id="color09" x="120" y="140" width="80" height="80" fill="#e82424"/>
  <rect id="color02" x="210" y="30" width="80" height="80" fill="#76946a"/>
  <rect id="color10" x="210" y="140" width="80" height="80" fill="#98bb6c"/>
  <rect id="color03" x="300" y="30" width="80" height="80" fill="#c0a36e"/>
  <rect id="color11" x="300" y="140" width="80" height="80" fill="#e6c384"/>
  <rect id="color04" x="390" y="30" width="80" height="80" fill="#7e9cd8"/>
  <rect id="color12" x="390" y="140" width="80" height="80" fill="#7fb4ca"/>
  <rect id="color05" x="480" y="30" width="80" height="80" fill="#957fb8"/>
  <rect id="color13" x="480" y="140" width="80" height="80" fill="#938aa9"/>
  <rect id="color06" x="570" y="30" width="80" height="80" fill="#6a9589"/>
  <rect id="color14" x="570" y="140" width="80" height="80" fill="#7aa89f"/>
  <rect id="color07" x="660" y="30" width="80" height="80" fill="#c8c093"/>
  <rect id="color15" x="660" y="140" width="80" height="80" fill="#dcd7ba"/>
</svg>