<svg id="previews" width="770" height="250" version="1.1" xmlns="http://www.w3.org/2000/svg">
  <rect id="background" x="-2.5e-7" y="-1.3549e-6" width="770" height="250" fill="#1b1b1b"/>
  <rect id="color00" x="30" y="30" width="80" height="80" fill="#3d3d3d"/>
  <rect id="color08" x="30" y="140" width="80" height="80" fill="#4d4d4d"/>
  <rect id="color01" x="120" y="30" width="80" height="80" fill="#6673bf"/>
  <rect id="color09" x="120" y="140" width="80" height="80" fill="#899aff"/>
  <rect id="color02" x="210" y="30" width="80" height="80" fill="#3ea290"/>
  <rect id="color10" x="210" y="140" width="80" height="80" fill="#52ad91"/>
  <rect id="color03" x="300" y="30" width="80" height="80" fill="#b0ead9"/>
  <rect id="color11" x="300" y="140" width="80" height="80" fill="#98c9bb"/>
  <rect id="color04" x="390" y="30" width="80" height="80" fill="#31658c"/>
  <rect id="color12" x="390" y="140" width="80" height="80" fill="#477ab3"/>
  <rect id="color05" x="480" y="30" width="80" height="80" fill="#596196"/>
  <rect id="color13" x="480" y="140" width="80" height="80" fill="#7882bf"/>
  <rect id="color06" x="570" y="30" width="80" height="80" fill="#8292b2"/>
  <rect id="color14" x="570" y="140" width="80" height="80" fill="#95a7cc"/>
  <rect id="color07" x="660" y="30" width="80" height="80" fill="#c8cacc"/>
  <rect id="color15" x="660" y="140" width="80" height="80" fill="#edeff2"/>
</svg>