<svg id="previews" width="770" height="250" version="1.1" xmlns="http://www.w3.org/2000/svg">
  <rect id="background" x="-2.5e-7" y="-1.3549e-6" width="770" height="250" fill="#050505"/>
  <rect id="color00" x="30" y="30" width="80" height="80" fill="#141414"/>
  <rect id="color08" x="30" y="140" width="80" height="80" fill="#c0531c"/>
  <rect id="color01" x="120" y="30" width="80" height="80" fill="#a01717"/>
  <rect id="color09" x="120" y="140" width="80" height="80" fill="#d88663"/>
  <rect id="color02" x="210" y="30" width="80" height="80" fill="#a00000"/>
  <rect id="color10" x="210" y="140" width="80" height="80" fill="#e0a182"/>
  <rect id="color03" x="300" y="30" width="80" height="80" fill="#aa0d0d"/>
  <rect id="color11" x="300" y="140" width="80" height="80" fill="#e09e8e"/>
  <rect id="color04" x="390" y="30" width="80" height="80" fill="#a03c26"/>
  <rect id="color12" x="390" y="140" width="80" height="80" fill="#e0b89c"/>
  <rect id="color05" x="480" y="30" width="80" height="80" fill="#a42e08"/>
  <rect id="color13" x="480" y="140" width="80" height="80" fill="#e0c3ae"/>
  <rect id="color06" x="570" y="30" width="80" height="80" fill="#dc1900"/>
  <rect id="color14" x="570" y="140" width="80" height="80" fill="#e0ccc0"/>
  <rect id="color07" x="660" y="30" width="80" height="80" fill="#b1563c"/>
  <rect id="color15" x="660" y="140" width="80" height="80" fill="#e0d8d1"/>
</svg>