<svg id="previews" width="770" height="250" version="1.1" xmlns="http://www.w3.org/2000/svg">
  <rect id="background" x="-2.5e-7" y="-1.3549e-6" width="770" height="250" fill="#131519"/>
  <rect id="color00" x="30" y="30" width="80" height="80" fill="#0e0e11"/>
  <rect id="color08" x="30" y="140" width="80" height="80" fill="#686868"/>
  <rect id="color01" x="120" y="30" width="80" height="80" fill="#ea6c73"/>
  <rect id="color09" x="120" y="140" width="80" height="80" fill="#f24732"/>
  <rect id="color02" x="210" y="30" width="80" height="80" fill="#91b362"/>
  <rect id="color10" x="210" y="140" width="80" height="80" fill="#b8bb26"/>
  <rect id="color03" x="300" y="30" width="80" height="80" fill="#f9af4f"/>
  <rect id="color11" x="300" y="140" width="80" height="80" fill="#f24732"/>
  <rect id="color04" x="390" y="30" width="80" height="80" fill="#53bdfa"/>
  <rect id="color12" x="390" y="140" width="80" height="80" fill="#59c2ff"/>
  <rect id="color05" x="480" y="30" width="80" height="80" fill="#fae994"/>
  <rect id="color13" x="480" y="140" width="80" height="80" fill="#40ef4b"/>
  <rect id="color06" x="570" y="30" width="80" height="80" fill="#90e1c6"/>
  <rect id="color14" x="570" y="140" width="80" height="80" fill="#95e6cb"/>
  <rect id="color07" x="660" y="30" width="80" height="80" fill="#c7c7c7"/>
  <rect id="color15" x="660" y="140" width="80" height="80" fill="#ffffff"/>
</svg>