<svg id="previews" width="770" height="250" version="1.1" xmlns="http://www.w3.org/2000/svg">
  <rect id="background" x="-2.5e-7" y="-1.3549e-6" width="770" height="250" fill="#010101"/>
  <rect id="color00" x="30" y="30" width="80" height="80" fill="#333333"/>
  <rect id="color08" x="30" y="140" width="80" height="80" fill="#555555"/>
  <rect id="color01" x="120" y="30" width="80" height="80" fill="#882530"/>
  <rect id="color09" x="120" y="140" width="80" height="80" fill="#883740"/>
  <rect id="color02" x="210" y="30" width="80" height="80" fill="#7f913e"/>
  <rect id="color10" x="210" y="140" width="80" height="80" fill="#839150"/>
  <rect id="color03" x="300" y="30" width="80" height="80" fill="#aa550a"/>
  <rect id="color11" x="300" y="140" width="80" height="80" fill="#aa6a32"/>
  <rect id="color04" x="390" y="30" width="80" height="80" fill="#137ec8"/>
  <rect id="color12" x="390" y="140" width="80" height="80" fill="#3e8fc8"/>
  <rect id="color05" x="480" y="30" width="80" height="80" fill="#7b16a6"/>
  <rect id="color13" x="480" y="140" width="80" height="80" fill="#8840a6"/>
  <rect id="color06" x="570" y="30" width="80" height="80" fill="#008c5e"/>
  <rect id="color14" x="570" y="140" width="80" height="80" fill="#2f8c6d"/>
  <rect id="color07" x="660" y="30" width="80" height="80" fill="#bbbbbb"/>
  <rect id="color15" x="660" y="140" width="80" height="80" fill="#dddddd"/>
</svg>