<svg id="previews" width="770" height="250" version="1.1" xmlns="http://www.w3.org/2000/svg">
  <rect id="background" x="-2.5e-7" y="-1.3549e-6" width="770" height="250" fill="#14101c"/>
  <rect id="color00" x="30" y="30" width="80" height="80" fill="#14101c"/>
  <rect id="color08" x="30" y="140" width="80" height="80" fill="#4b464f"/>
  <rect id="color01" x="120" y="30" width="80" height="80" fill="#ad6a72"/>
  <rect id="color09" x="120" y="140" width="80" height="80" fill="#d99395"/>
  <rect id="color02" x="210" y="30" width="80" height="80" fill="#a2b07f"/>
  <rect id="color10" x="210" y="140" width="80" height="80" fill="#c4d1a1"/>
  <rect id="color03" x="300" y="30" width="80" height="80" fill="#b39976"/>
  <rect id="color11" x="300" y="140" width="80" height="80" fill="#d1c894"/>
  <rect id="color04" x="390" y="30" width="80" height="80" fill="#829ba8"/>
  <rect id="color12" x="390" y="140" width="80" height="80" fill="#9bb6d4"/>
  <rect id="color05" x="480" y="30" width="80" height="80" fill="#ad748e"/>
  <rect id="color13" x="480" y="140" width="80" height="80" fill="#db9cbe"/>
  <rect id="color06" x="570" y="30" width="80" height="80" fill="#7d9b90"/>
  <rect id="color14" x="570" y="140" width="80" height="80" fill="#a4c1b7"/>
  <rect id="color07" x="660" y="30" width="80" height="80" fill="#aaa5ad"/>
  <rect id="color15" x="660" y="140" width="80" height="80" fill="#d6ccdc"/>
</svg>