<svg id="previews" width="770" height="250" version="1.1" xmlns="http://www.w3.org/2000/svg">
  <rect id="background" x="-2.5e-7" y="-1.3549e-6" width="770" height="250" fill="#303135"/>
  <rect id="color00" x="30" y="30" width="80" height="80" fill="#343c3f"/>
  <rect id="color08" x="30" y="140" width="80" height="80" fill="#465155"/>
  <rect id="color01" x="120" y="30" width="80" height="80" fill="#f1a19a"/>
  <rect id="color09" x="120" y="140" width="80" height="80" fill="#f4b6b0"/>
  <rect id="color02" x="210" y="30" width="80" height="80" fill="#cdfb8c"/>
  <rect id="color10" x="210" y="140" width="80" height="80" fill="#d8fca5"/>
  <rect id="color03" x="300" y="30" width="80" height="80" fill="#fad494"/>
  <rect id="color11" x="300" y="140" width="80" height="80" fill="#fbdeac"/>
  <rect id="color04" x="390" y="30" width="80" height="80" fill="#7ac3fd"/>
  <rect id="color12" x="390" y="140" width="80" height="80" fill="#93cefd"/>
  <rect id="color05" x="480" y="30" width="80" height="80" fill="#eb72df"/>
  <rect id="color13" x="480" y="140" width="80" height="80" fill="#ee88e4"/>
  <rect id="color06" x="570" y="30" width="80" height="80" fill="#85e6fc"/>
  <rect id="color14" x="570" y="140" width="80" height="80" fill="#9eebfd"/>
  <rect id="color07" x="660" y="30" width="80" height="80" fill="#eeeeee"/>
  <rect id="color15" x="660" y="140" width="80" height="80" fill="#ffffff"/>
</svg>