<svg id="previews" width="770" height="250" version="1.1" xmlns="http://www.w3.org/2000/svg">
  <rect id="background" x="-2.5e-7" y="-1.3549e-6" width="770" height="250" fill="#222022"/>
  <rect id="color00" x="30" y="30" width="80" height="80" fill="#493441"/>
  <rect id="color08" x="30" y="140" width="80" height="80" fill="#382536"/>
  <rect id="color01" x="120" y="30" width="80" height="80" fill="#cb4e72"/>
  <rect id="color09" x="120" y="140" width="80" height="80" fill="#c92f4c"/>
  <rect id="color02" x="210" y="30" width="80" height="80" fill="#ab579c"/>
  <rect id="color10" x="210" y="140" width="80" height="80" fill="#7a449a"/>
  <rect id="color03" x="300" y="30" width="80" height="80" fill="#e9a66c"/>
  <rect id="color11" x="300" y="140" width="80" height="80" fill="#c64950"/>
  <rect id="color04" x="390" y="30" width="80" height="80" fill="#497dd8"/>
  <rect id="color12" x="390" y="140" width="80" height="80" fill="#52326c"/>
  <rect id="color05" x="480" y="30" width="80" height="80" fill="#f4ddcc"/>
  <rect id="color13" x="480" y="140" width="80" height="80" fill="#e38d79"/>
  <rect id="color06" x="570" y="30" width="80" height="80" fill="#f5616d"/>
  <rect id="color14" x="570" y="140" width="80" height="80" fill="#c12f4d"/>
  <rect id="color07" x="660" y="30" width="80" height="80" fill="#ac9c93"/>
  <rect id="color15" x="660" y="140" width="80" height="80" fill="#f3d7d1"/>
</svg>