<svg id="previews" width="770" height="250" version="1.1" xmlns="http://www.w3.org/2000/svg">
  <rect id="background" x="-2.5e-7" y="-1.3549e-6" width="770" height="250" fill="#030303"/>
  <rect id="color00" x="30" y="30" width="80" height="80" fill="#090909"/>
  <rect id="color08" x="30" y="140" width="80" height="80" fill="#404040"/>
  <rect id="color01" x="120" y="30" width="80" height="80" fill="#8c4665"/>
  <rect id="color09" x="120" y="140" width="80" height="80" fill="#bf4d80"/>
  <rect id="color02" x="210" y="30" width="80" height="80" fill="#287373"/>
  <rect id="color10" x="210" y="140" width="80" height="80" fill="#53a6a6"/>
  <rect id="color03" x="300" y="30" width="80" height="80" fill="#7c7c99"/>
  <rect id="color11" x="300" y="140" width="80" height="80" fill="#9e9ecb"/>
  <rect id="color04" x="390" y="30" width="80" height="80" fill="#395573"/>
  <rect id="color12" x="390" y="140" width="80" height="80" fill="#477ab3"/>
  <rect id="color05" x="480" y="30" width="80" height="80" fill="#5e468c"/>
  <rect id="color13" x="480" y="140" width="80" height="80" fill="#7e62b3"/>
  <rect id="color06" x="570" y="30" width="80" height="80" fill="#31658c"/>
  <rect id="color14" x="570" y="140" width="80" height="80" fill="#6096bf"/>
  <rect id="color07" x="660" y="30" width="80" height="80" fill="#9e9ecb"/>
  <rect id="color15" x="660" y="140" width="80" height="80" fill="#c0c0c0"/>
</svg>