<svg id="previews" width="770" height="250" version="1.1" xmlns="http://www.w3.org/2000/svg">
  <rect id="background" x="-2.5e-7" y="-1.3549e-6" width="770" height="250" fill="#26292e"/>
  <rect id="color00" x="30" y="30" width="80" height="80" fill="#32353c"/>
  <rect id="color08" x="30" y="140" width="80" height="80" fill="#494e58"/>
  <rect id="color01" x="120" y="30" width="80" height="80" fill="#ff597d"/>
  <rect id="color09" x="120" y="140" width="80" height="80" fill="#e55073"/>
  <rect id="color02" x="210" y="30" width="80" height="80" fill="#2bb1af"/>
  <rect id="color10" x="210" y="140" width="80" height="80" fill="#28a5a3"/>
  <rect id="color03" x="300" y="30" width="80" height="80" fill="#39abdc"/>
  <rect id="color11" x="300" y="140" width="80" height="80" fill="#369ecf"/>
  <rect id="color04" x="390" y="30" width="80" height="80" fill="#ff6277"/>
  <rect id="color12" x="390" y="140" width="80" height="80" fill="#ff596c"/>
  <rect id="color05" x="480" y="30" width="80" height="80" fill="#c679dd"/>
  <rect id="color13" x="480" y="140" width="80" height="80" fill="#c678dd"/>
  <rect id="color06" x="570" y="30" width="80" height="80" fill="#ffe185"/>
  <rect id="color14" x="570" y="140" width="80" height="80" fill="#ffe080"/>
  <rect id="color07" x="660" y="30" width="80" height="80" fill="#9cacad"/>
  <rect id="color15" x="660" y="140" width="80" height="80" fill="#4a5f6a"/>
</svg>