<svg id="previews" width="770" height="250" version="1.1" xmlns="http://www.w3.org/2000/svg">
  <rect id="background" x="-2.5e-7" y="-1.3549e-6" width="770" height="250" fill="#1b1d1e"/>
  <rect id="color00" x="30" y="30" width="80" height="80" fill="#1b1d1e"/>
  <rect id="color08" x="30" y="140" width="80" height="80" fill="#555555"/>
  <rect id="color01" x="120" y="30" width="80" height="80" fill="#7325fa"/>
  <rect id="color09" x="120" y="140" width="80" height="80" fill="#9d66f6"/>
  <rect id="color02" x="210" y="30" width="80" height="80" fill="#23e298"/>
  <rect id="color10" x="210" y="140" width="80" height="80" fill="#5fe0b1"/>
  <rect id="color03" x="300" y="30" width="80" height="80" fill="#60d4df"/>
  <rect id="color11" x="300" y="140" width="80" height="80" fill="#6df2ff"/>
  <rect id="color04" x="390" y="30" width="80" height="80" fill="#d08010"/>
  <rect id="color12" x="390" y="140" width="80" height="80" fill="#ffaf00"/>
  <rect id="color05" x="480" y="30" width="80" height="80" fill="#ff0087"/>
  <rect id="color13" x="480" y="140" width="80" height="80" fill="#ff87af"/>
  <rect id="color06" x="570" y="30" width="80" height="80" fill="#d0a843"/>
  <rect id="color14" x="570" y="140" width="80" height="80" fill="#ffce51"/>
  <rect id="color07" x="660" y="30" width="80" height="80" fill="#bbbbbb"/>
  <rect id="color15" x="660" y="140" width="80" height="80" fill="#ffffff"/>
</svg>