<svg id="previews" width="770" height="250" version="1.1" xmlns="http://www.w3.org/2000/svg">
  <rect id="background" x="-2.5e-7" y="-1.3549e-6" width="770" height="250" fill="#111111"/>
  <rect id="color00" x="30" y="30" width="80" height="80" fill="#202020"/>
  <rect id="color08" x="30" y="140" width="80" height="80" fill="#202020"/>
  <rect id="color01" x="120" y="30" width="80" height="80" fill="#f8f8f8"/>
  <rect id="color09" x="120" y="140" width="80" height="80" fill="#f8f8f8"/>
  <rect id="color02" x="210" y="30" width="80" height="80" fill="#aadb0f"/>
  <rect id="color10" x="210" y="140" width="80" height="80" fill="#aadb0f"/>
  <rect id="color03" x="300" y="30" width="80" height="80" fill="#f7f7f7"/>
  <rect id="color11" x="300" y="140" width="80" height="80" fill="#f7f7f7"/>
  <rect id="color04" x="390" y="30" width="80" height="80" fill="#606060"/>
  <rect id="color12" x="390" y="140" width="80" height="80" fill="#606060"/>
  <rect id="color05" x="480" y="30" width="80" height="80" fill="#91ba0d"/>
  <rect id="color13" x="480" y="140" width="80" height="80" fill="#91ba0d"/>
  <rect id="color06" x="570" y="30" width="80" height="80" fill="#e2e2e2"/>
  <rect id="color14" x="570" y="140" width="80" height="80" fill="#e2e2e2"/>
  <rect id="color07" x="660" y="30" width="80" height="80" fill="#ffffff"/>
  <rect id="color15" x="660" y="140" width="80" height="80" fill="#ffffff"/>
</svg>