<svg id="previews" width="770" height="250" version="1.1" xmlns="http://www.w3.org/2000/svg">
  <rect id="background" x="-2.5e-7" y="-1.3549e-6" width="770" height="250" fill="#1b2227"/>
  <rect id="color00" x="30" y="30" width="80" height="80" fill="#252c31"/>
  <rect id="color08" x="30" y="140" width="80" height="80" fill="#374650"/>
  <rect id="color01" x="120" y="30" width="80" height="80" fill="#785561"/>
  <rect id="color09" x="120" y="140" width="80" height="80" fill="#8a6270"/>
  <rect id="color02" x="210" y="30" width="80" height="80" fill="#58614f"/>
  <rect id="color10" x="210" y="140" width="80" height="80" fill="#6d7762"/>
  <rect id="color03" x="300" y="30" width="80" height="80" fill="#7e735a"/>
  <rect id="color11" x="300" y="140" width="80" height="80" fill="#8d8063"/>
  <rect id="color04" x="390" y="30" width="80" height="80" fill="#424a64"/>
  <rect id="color12" x="390" y="140" width="80" height="80" fill="#626c94"/>
  <rect id="color05" x="480" y="30" width="80" height="80" fill="#4d3e4c"/>
  <rect id="color13" x="480" y="140" width="80" height="80" fill="#665064"/>
  <rect id="color06" x="570" y="30" width="80" height="80" fill="#3c5a5d"/>
  <rect id="color14" x="570" y="140" width="80" height="80" fill="#548084"/>
  <rect id="color07" x="660" y="30" width="80" height="80" fill="#7b8695"/>
  <rect id="color15" x="660" y="140" width="80" height="80" fill="#94a1b3"/>
</svg>