<svg id="previews" width="770" height="250" version="1.1" xmlns="http://www.w3.org/2000/svg">
  <rect id="background" x="-2.5e-7" y="-1.3549e-6" width="770" height="250" fill="#1c1f27"/>
  <rect id="color00" x="30" y="30" width="80" height="80" fill="#4f4f4f"/>
  <rect id="color08" x="30" y="140" width="80" height="80" fill="#7b7b7b"/>
  <rect id="color01" x="120" y="30" width="80" height="80" fill="#af4b57"/>
  <rect id="color09" x="120" y="140" width="80" height="80" fill="#af4b57"/>
  <rect id="color02" x="210" y="30" width="80" height="80" fill="#afd383"/>
  <rect id="color10" x="210" y="140" width="80" height="80" fill="#ceffab"/>
  <rect id="color03" x="300" y="30" width="80" height="80" fill="#e5c079"/>
  <rect id="color11" x="300" y="140" width="80" height="80" fill="#fffecc"/>
  <rect id="color04" x="390" y="30" width="80" height="80" fill="#7d90a4"/>
  <rect id="color12" x="390" y="140" width="80" height="80" fill="#b5dcfe"/>
  <rect id="color05" x="480" y="30" width="80" height="80" fill="#a4799d"/>
  <rect id="color13" x="480" y="140" width="80" height="80" fill="#fb9bfe"/>
  <rect id="color06" x="570" y="30" width="80" height="80" fill="#85a6a5"/>
  <rect id="color14" x="570" y="140" width="80" height="80" fill="#dfdffd"/>
  <rect id="color07" x="660" y="30" width="80" height="80" fill="#eeedee"/>
  <rect id="color15" x="660" y="140" width="80" height="80" fill="#fefffe"/>
</svg>