<svg id="previews" width="770" height="250" version="1.1" xmlns="http://www.w3.org/2000/svg">
  <rect id="background" x="-2.5e-7" y="-1.3549e-6" width="770" height="250" fill="#0b0d10"/>
  <rect id="color00" x="30" y="30" width="80" height="80" fill="#636c7e"/>
  <rect id="color08" x="30" y="140" width="80" height="80" fill="#6e7b8f"/>
  <rect id="color01" x="120" y="30" width="80" height="80" fill="#c44949"/>
  <rect id="color09" x="120" y="140" width="80" height="80" fill="#e15858"/>
  <rect id="color02" x="210" y="30" width="80" height="80" fill="#3fcc6c"/>
  <rect id="color10" x="210" y="140" width="80" height="80" fill="#53db7f"/>
  <rect id="color03" x="300" y="30" width="80" height="80" fill="#dfa93f"/>
  <rect id="color11" x="300" y="140" width="80" height="80" fill="#daa640"/>
  <rect id="color04" x="390" y="30" width="80" height="80" fill="#3580c1"/>
  <rect id="color12" x="390" y="140" width="80" height="80" fill="#4796d9"/>
  <rect id="color05" x="480" y="30" width="80" height="80" fill="#ac45cc"/>
  <rect id="color13" x="480" y="140" width="80" height="80" fill="#b057cb"/>
  <rect id="color06" x="570" y="30" width="80" height="80" fill="#36b5a4"/>
  <rect id="color14" x="570" y="140" width="80" height="80" fill="#51d5c3"/>
  <rect id="color07" x="660" y="30" width="80" height="80" fill="#6e7d8a"/>
  <rect id="color15" x="660" y="140" width="80" height="80" fill="#b5cdbd"/>
</svg>