<svg id="previews" width="770" height="250" version="1.1" xmlns="http://www.w3.org/2000/svg">
  <rect id="background" x="-2.5e-7" y="-1.3549e-6" width="770" height="250" fill="#212529"/>
  <rect id="color00" x="30" y="30" width="80" height="80" fill="#343a40"/>
  <rect id="color08" x="30" y="140" width="80" height="80" fill="#495057"/>
  <rect id="color01" x="120" y="30" width="80" height="80" fill="#fa5252"/>
  <rect id="color09" x="120" y="140" width="80" height="80" fill="#ff8787"/>
  <rect id="color02" x="210" y="30" width="80" height="80" fill="#40c057"/>
  <rect id="color10" x="210" y="140" width="80" height="80" fill="#69db7c"/>
  <rect id="color03" x="300" y="30" width="80" height="80" fill="#fd7e14"/>
  <rect id="color11" x="300" y="140" width="80" height="80" fill="#ffa94d"/>
  <rect id="color04" x="390" y="30" width="80" height="80" fill="#228be6"/>
  <rect id="color12" x="390" y="140" width="80" height="80" fill="#4dabf7"/>
  <rect id="color05" x="480" y="30" width="80" height="80" fill="#e64980"/>
  <rect id="color13" x="480" y="140" width="80" height="80" fill="#f783ac"/>
  <rect id="color06" x="570" y="30" width="80" height="80" fill="#15aabf"/>
  <rect id="color14" x="570" y="140" width="80" height="80" fill="#3bc9db"/>
  <rect id="color07" x="660" y="30" width="80" height="80" fill="#adb5bd"/>
  <rect id="color15" x="660" y="140" width="80" height="80" fill="#e9ecef"/>
</svg>