<svg id="previews" width="770" height="250" version="1.1" xmlns="http://www.w3.org/2000/svg">
  <rect id="background" x="-2.5e-7" y="-1.3549e-6" width="770" height="250" fill="#2f343f"/>
  <rect id="color00" x="30" y="30" width="80" height="80" fill="#2e0904"/>
  <rect id="color08" x="30" y="140" width="80" height="80" fill="#757575"/>
  <rect id="color01" x="120" y="30" width="80" height="80" fill="#a66550"/>
  <rect id="color09" x="120" y="140" width="80" height="80" fill="#a66550"/>
  <rect id="color02" x="210" y="30" width="80" height="80" fill="#d46950"/>
  <rect id="color10" x="210" y="140" width="80" height="80" fill="#d46950"/>
  <rect id="color03" x="300" y="30" width="80" height="80" fill="#b7876c"/>
  <rect id="color11" x="300" y="140" width="80" height="80" fill="#b7876c"/>
  <rect id="color04" x="390" y="30" width="80" height="80" fill="#bf616a"/>
  <rect id="color12" x="390" y="140" width="80" height="80" fill="#bf616a"/>
  <rect id="color05" x="480" y="30" width="80" height="80" fill="#b77d83"/>
  <rect id="color13" x="480" y="140" width="80" height="80" fill="#b77d83"/>
  <rect id="color06" x="570" y="30" width="80" height="80" fill="#e1a792"/>
  <rect id="color14" x="570" y="140" width="80" height="80" fill="#e1a792"/>
  <rect id="color07" x="660" y="30" width="80" height="80" fill="#efd2c3"/>
  <rect id="color15" x="660" y="140" width="80" height="80" fill="#efd2c3"/>
</svg>