<svg id="previews" width="770" height="250" version="1.1" xmlns="http://www.w3.org/2000/svg">
  <rect id="background" x="-2.5e-7" y="-1.3549e-6" width="770" height="250" fill="#f9faf4"/>
  <rect id="color00" x="30" y="30" width="80" height="80" fill="#dbd9da"/>
  <rect id="color08" x="30" y="140" width="80" height="80" fill="#cdb7aa"/>
  <rect id="color01" x="120" y="30" width="80" height="80" fill="#e46c6d"/>
  <rect id="color09" x="120" y="140" width="80" height="80" fill="#d65455"/>
  <rect id="color02" x="210" y="30" width="80" height="80" fill="#aecdad"/>
  <rect id="color10" x="210" y="140" width="80" height="80" fill="#8cb88b"/>
  <rect id="color03" x="300" y="30" width="80" height="80" fill="#d8af60"/>
  <rect id="color11" x="300" y="140" width="80" height="80" fill="#c49b4a"/>
  <rect id="color04" x="390" y="30" width="80" height="80" fill="#819fc1"/>
  <rect id="color12" x="390" y="140" width="80" height="80" fill="#6688ad"/>
  <rect id="color05" x="480" y="30" width="80" height="80" fill="#b899a8"/>
  <rect id="color13" x="480" y="140" width="80" height="80" fill="#a38895"/>
  <rect id="color06" x="570" y="30" width="80" height="80" fill="#68c7c1"/>
  <rect id="color14" x="570" y="140" width="80" height="80" fill="#4eb3ac"/>
  <rect id="color07" x="660" y="30" width="80" height="80" fill="#526b6e"/>
  <rect id="color15" x="660" y="140" width="80" height="80" fill="#3b4d4f"/>
</svg>