<svg id="previews" width="770" height="250" version="1.1" xmlns="http://www.w3.org/2000/svg">
  <rect id="background" x="-2.5e-7" y="-1.3549e-6" width="770" height="250" fill="#ffecd9"/>
  <rect id="color00" x="30" y="30" width="80" height="80" fill="#5d4c46"/>
  <rect id="color08" x="30" y="140" width="80" height="80" fill="#856d64"/>
  <rect id="color01" x="120" y="30" width="80" height="80" fill="#e45641"/>
  <rect id="color09" x="120" y="140" width="80" height="80" fill="#ff6049"/>
  <rect id="color02" x="210" y="30" width="80" height="80" fill="#737f2d"/>
  <rect id="color10" x="210" y="140" width="80" height="80" fill="#9eae3d"/>
  <rect id="color03" x="300" y="30" width="80" height="80" fill="#d79746"/>
  <rect id="color11" x="300" y="140" width="80" height="80" fill="#ecb268"/>
  <rect id="color04" x="390" y="30" width="80" height="80" fill="#3895a2"/>
  <rect id="color12" x="390" y="140" width="80" height="80" fill="#44b4c4"/>
  <rect id="color05" x="480" y="30" width="80" height="80" fill="#a63f59"/>
  <rect id="color13" x="480" y="140" width="80" height="80" fill="#cf4f6f"/>
  <rect id="color06" x="570" y="30" width="80" height="80" fill="#5c6a6a"/>
  <rect id="color14" x="570" y="140" width="80" height="80" fill="#889c9d"/>
  <rect id="color07" x="660" y="30" width="80" height="80" fill="#2c1210"/>
  <rect id="color15" x="660" y="140" width="80" height="80" fill="#652925"/>
</svg>