<svg id="previews" width="770" height="250" version="1.1" xmlns="http://www.w3.org/2000/svg">
  <rect id="background" x="-2.5e-7" y="-1.3549e-6" width="770" height="250" fill="#fffcfd"/>
  <rect id="color00" x="30" y="30" width="80" height="80" fill="#f3eae9"/>
  <rect id="color08" x="30" y="140" width="80" height="80" fill="#d8b8b3"/>
  <rect id="color01" x="120" y="30" width="80" height="80" fill="#873e40"/>
  <rect id="color09" x="120" y="140" width="80" height="80" fill="#832426"/>
  <rect id="color02" x="210" y="30" width="80" height="80" fill="#839a53"/>
  <rect id="color10" x="210" y="140" width="80" height="80" fill="#6f873e"/>
  <rect id="color03" x="300" y="30" width="80" height="80" fill="#d4a520"/>
  <rect id="color11" x="300" y="140" width="80" height="80" fill="#c39104"/>
  <rect id="color04" x="390" y="30" width="80" height="80" fill="#a6b6ce"/>
  <rect id="color12" x="390" y="140" width="80" height="80" fill="#7b91b3"/>
  <rect id="color05" x="480" y="30" width="80" height="80" fill="#d68482"/>
  <rect id="color13" x="480" y="140" width="80" height="80" fill="#c97270"/>
  <rect id="color06" x="570" y="30" width="80" height="80" fill="#89beb7"/>
  <rect id="color14" x="570" y="140" width="80" height="80" fill="#63a098"/>
  <rect id="color07" x="660" y="30" width="80" height="80" fill="#ecc3c2"/>
  <rect id="color15" x="660" y="140" width="80" height="80" fill="#f2cc60"/>
</svg>