<svg id="previews" width="770" height="250" version="1.1" xmlns="http://www.w3.org/2000/svg">
  <rect id="background" x="-2.5e-7" y="-1.3549e-6" width="770" height="250" fill="#141529"/>
  <rect id="color00" x="30" y="30" width="80" height="80" fill="#262339"/>
  <rect id="color08" x="30" y="140" width="80" height="80" fill="#514f69"/>
  <rect id="color01" x="120" y="30" width="80" height="80" fill="#c30052"/>
  <rect id="color09" x="120" y="140" width="80" height="80" fill="#ed2e7e"/>
  <rect id="color02" x="210" y="30" width="80" height="80" fill="#00966d"/>
  <rect id="color10" x="210" y="140" width="80" height="80" fill="#00ba88"/>
  <rect id="color03" x="300" y="30" width="80" height="80" fill="#f7956f"/>
  <rect id="color11" x="300" y="140" width="80" height="80" fill="#faba75"/>
  <rect id="color04" x="390" y="30" width="80" height="80" fill="#0096b7"/>
  <rect id="color12" x="390" y="140" width="80" height="80" fill="#1cc8ee"/>
  <rect id="color05" x="480" y="30" width="80" height="80" fill="#9049ff"/>
  <rect id="color13" x="480" y="140" width="80" height="80" fill="#af63ff"/>
  <rect id="color06" x="570" y="30" width="80" height="80" fill="#23d8c4"/>
  <rect id="color14" x="570" y="140" width="80" height="80" fill="#6ed8cc"/>
  <rect id="color07" x="660" y="30" width="80" height="80" fill="#a0a3bd"/>
  <rect id="color15" x="660" y="140" width="80" height="80" fill="#fcfcfc"/>
</svg>