<svg id="previews" width="770" height="250" version="1.1" xmlns="http://www.w3.org/2000/svg">
  <rect id="background" x="-2.5e-7" y="-1.3549e-6" width="770" height="250" fill="#f1f1f1"/>
  <rect id="color00" x="30" y="30" width="80" height="80" fill="#212121"/>
  <rect id="color08" x="30" y="140" width="80" height="80" fill="#424242"/>
  <rect id="color01" x="120" y="30" width="80" height="80" fill="#c30771"/>
  <rect id="color09" x="120" y="140" width="80" height="80" fill="#fb007a"/>
  <rect id="color02" x="210" y="30" width="80" height="80" fill="#10a778"/>
  <rect id="color10" x="210" y="140" width="80" height="80" fill="#5fd7af"/>
  <rect id="color03" x="300" y="30" width="80" height="80" fill="#a89c14"/>
  <rect id="color11" x="300" y="140" width="80" height="80" fill="#f3e430"/>
  <rect id="color04" x="390" y="30" width="80" height="80" fill="#008ec4"/>
  <rect id="color12" x="390" y="140" width="80" height="80" fill="#20bbfc"/>
  <rect id="color05" x="480" y="30" width="80" height="80" fill="#523c79"/>
  <rect id="color13" x="480" y="140" width="80" height="80" fill="#6855de"/>
  <rect id="color06" x="570" y="30" width="80" height="80" fill="#20a5ba"/>
  <rect id="color14" x="570" y="140" width="80" height="80" fill="#4fb8cc"/>
  <rect id="color07" x="660" y="30" width="80" height="80" fill="#6b6b6b"/>
  <rect id="color15" x="660" y="140" width="80" height="80" fill="#888888"/>
</svg>