<svg id="previews" width="770" height="250" version="1.1" xmlns="http://www.w3.org/2000/svg">
  <rect id="background" x="-2.5e-7" y="-1.3549e-6" width="770" height="250" fill="#ffffff"/>
  <rect id="color00" x="30" y="30" width="80" height="80" fill="#f7d2d9"/>
  <rect id="color08" x="30" y="140" width="80" height="80" fill="#b0cc7f"/>
  <rect id="color01" x="120" y="30" width="80" height="80" fill="#fbdfdc"/>
  <rect id="color09" x="120" y="140" width="80" height="80" fill="#79c45f"/>
  <rect id="color02" x="210" y="30" width="80" height="80" fill="#c5807b"/>
  <rect id="color10" x="210" y="140" width="80" height="80" fill="#4e8544"/>
  <rect id="color03" x="300" y="30" width="80" height="80" fill="#dab4a1"/>
  <rect id="color11" x="300" y="140" width="80" height="80" fill="#dad1b4"/>
  <rect id="color04" x="390" y="30" width="80" height="80" fill="#9a7f62"/>
  <rect id="color12" x="390" y="140" width="80" height="80" fill="#dca6be"/>
  <rect id="color05" x="480" y="30" width="80" height="80" fill="#3d2a23"/>
  <rect id="color13" x="480" y="140" width="80" height="80" fill="#d6d698"/>
  <rect id="color06" x="570" y="30" width="80" height="80" fill="#adc2c3"/>
  <rect id="color14" x="570" y="140" width="80" height="80" fill="#f8cccd"/>
  <rect id="color07" x="660" y="30" width="80" height="80" fill="#8bb583"/>
  <rect id="color15" x="660" y="140" width="80" height="80" fill="#caedef"/>
</svg>