<svg id="previews" width="770" height="250" version="1.1" xmlns="http://www.w3.org/2000/svg">
  <rect id="background" x="-2.5e-7" y="-1.3549e-6" width="770" height="250" fill="#1f1a0c"/>
  <rect id="color00" x="30" y="30" width="80" height="80" fill="#252119"/>
  <rect id="color08" x="30" y="140" width="80" height="80" fill="#625e54"/>
  <rect id="color01" x="120" y="30" width="80" height="80" fill="#a47b3d"/>
  <rect id="color09" x="120" y="140" width="80" height="80" fill="#a47b3d"/>
  <rect id="color02" x="210" y="30" width="80" height="80" fill="#7b9764"/>
  <rect id="color10" x="210" y="140" width="80" height="80" fill="#7b9764"/>
  <rect id="color03" x="300" y="30" width="80" height="80" fill="#aead5d"/>
  <rect id="color11" x="300" y="140" width="80" height="80" fill="#aead5d"/>
  <rect id="color04" x="390" y="30" width="80" height="80" fill="#628e8f"/>
  <rect id="color12" x="390" y="140" width="80" height="80" fill="#628e8f"/>
  <rect id="color05" x="480" y="30" width="80" height="80" fill="#ad9d52"/>
  <rect id="color13" x="480" y="140" width="80" height="80" fill="#ad9d52"/>
  <rect id="color06" x="570" y="30" width="80" height="80" fill="#709681"/>
  <rect id="color14" x="570" y="140" width="80" height="80" fill="#709681"/>
  <rect id="color07" x="660" y="30" width="80" height="80" fill="#a5a39d"/>
  <rect id="color15" x="660" y="140" width="80" height="80" fill="#a5a39d"/>
</svg>