<svg id="previews" width="770" height="250" version="1.1" xmlns="http://www.w3.org/2000/svg">
  <rect id="background" x="-2.5e-7" y="-1.3549e-6" width="770" height="250" fill="#0a0b11"/>
  <rect id="color00" x="30" y="30" width="80" height="80" fill="#282a36"/>
  <rect id="color08" x="30" y="140" width="80" height="80" fill="#414458"/>
  <rect id="color01" x="120" y="30" width="80" height="80" fill="#f37f97"/>
  <rect id="color09" x="120" y="140" width="80" height="80" fill="#ff4971"/>
  <rect id="color02" x="210" y="30" width="80" height="80" fill="#5adecd"/>
  <rect id="color10" x="210" y="140" width="80" height="80" fill="#18e3c8"/>
  <rect id="color03" x="300" y="30" width="80" height="80" fill="#f2a272"/>
  <rect id="color11" x="300" y="140" width="80" height="80" fill="#ff8037"/>
  <rect id="color04" x="390" y="30" width="80" height="80" fill="#8897f4"/>
  <rect id="color12" x="390" y="140" width="80" height="80" fill="#556fff"/>
  <rect id="color05" x="480" y="30" width="80" height="80" fill="#c574dd"/>
  <rect id="color13" x="480" y="140" width="80" height="80" fill="#b043d1"/>
  <rect id="color06" x="570" y="30" width="80" height="80" fill="#79e6f3"/>
  <rect id="color14" x="570" y="140" width="80" height="80" fill="#3fdcee"/>
  <rect id="color07" x="660" y="30" width="80" height="80" fill="#fdfdfd"/>
  <rect id="color15" x="660" y="140" width="80" height="80" fill="#ffffff"/>
</svg>