<svg id="previews" width="770" height="250" version="1.1" xmlns="http://www.w3.org/2000/svg">
  <rect id="background" x="-2.5e-7" y="-1.3549e-6" width="770" height="250" fill="#101010"/>
  <rect id="color00" x="30" y="30" width="80" height="80" fill="#1a1a1a"/>
  <rect id="color08" x="30" y="140" width="80" height="80" fill="#454545"/>
  <rect id="color01" x="120" y="30" width="80" height="80" fill="#efa6a2"/>
  <rect id="color09" x="120" y="140" width="80" height="80" fill="#e0af85"/>
  <rect id="color02" x="210" y="30" width="80" height="80" fill="#80c990"/>
  <rect id="color10" x="210" y="140" width="80" height="80" fill="#5accaf"/>
  <rect id="color03" x="300" y="30" width="80" height="80" fill="#a69460"/>
  <rect id="color11" x="300" y="140" width="80" height="80" fill="#c8c874"/>
  <rect id="color04" x="390" y="30" width="80" height="80" fill="#a3b8ef"/>
  <rect id="color12" x="390" y="140" width="80" height="80" fill="#ccaced"/>
  <rect id="color05" x="480" y="30" width="80" height="80" fill="#e6a3dc"/>
  <rect id="color13" x="480" y="140" width="80" height="80" fill="#f2a1c2"/>
  <rect id="color06" x="570" y="30" width="80" height="80" fill="#50cacd"/>
  <rect id="color14" x="570" y="140" width="80" height="80" fill="#74c3e4"/>
  <rect id="color07" x="660" y="30" width="80" height="80" fill="#808080"/>
  <rect id="color15" x="660" y="140" width="80" height="80" fill="#c0c0c0"/>
</svg>