<svg id="previews" width="770" height="250" version="1.1" xmlns="http://www.w3.org/2000/svg">
  <rect id="background" x="-2.5e-7" y="-1.3549e-6" width="770" height="250" fill="#312a36"/>
  <rect id="color00" x="30" y="30" width="80" height="80" fill="#372f3d"/>
  <rect id="color08" x="30" y="140" width="80" height="80" fill="#5a545e"/>
  <rect id="color01" x="120" y="30" width="80" height="80" fill="#674f4a"/>
  <rect id="color09" x="120" y="140" width="80" height="80" fill="#674f4a"/>
  <rect id="color02" x="210" y="30" width="80" height="80" fill="#67786d"/>
  <rect id="color10" x="210" y="140" width="80" height="80" fill="#67786d"/>
  <rect id="color03" x="300" y="30" width="80" height="80" fill="#b08960"/>
  <rect id="color11" x="300" y="140" width="80" height="80" fill="#b08960"/>
  <rect id="color04" x="390" y="30" width="80" height="80" fill="#5e6d79"/>
  <rect id="color12" x="390" y="140" width="80" height="80" fill="#5e6d79"/>
  <rect id="color05" x="480" y="30" width="80" height="80" fill="#7d6969"/>
  <rect id="color13" x="480" y="140" width="80" height="80" fill="#7d6969"/>
  <rect id="color06" x="570" y="30" width="80" height="80" fill="#6a7a76"/>
  <rect id="color14" x="570" y="140" width="80" height="80" fill="#6a7a76"/>
  <rect id="color07" x="660" y="30" width="80" height="80" fill="#ccbfb3"/>
  <rect id="color15" x="660" y="140" width="80" height="80" fill="#ccbfb3"/>
</svg>