<svg id="previews" width="770" height="250" version="1.1" xmlns="http://www.w3.org/2000/svg">
  <rect id="background" x="-2.5e-7" y="-1.3549e-6" width="770" height="250" fill="#1d2426"/>
  <rect id="color00" x="30" y="30" width="80" height="80" fill="#39474a"/>
  <rect id="color08" x="30" y="140" width="80" height="80" fill="#4c5f63"/>
  <rect id="color01" x="120" y="30" width="80" height="80" fill="#986345"/>
  <rect id="color09" x="120" y="140" width="80" height="80" fill="#b07350"/>
  <rect id="color02" x="210" y="30" width="80" height="80" fill="#788249"/>
  <rect id="color10" x="210" y="140" width="80" height="80" fill="#869151"/>
  <rect id="color03" x="300" y="30" width="80" height="80" fill="#9b6a46"/>
  <rect id="color11" x="300" y="140" width="80" height="80" fill="#af6b42"/>
  <rect id="color04" x="390" y="30" width="80" height="80" fill="#3e5951"/>
  <rect id="color12" x="390" y="140" width="80" height="80" fill="#567a6e"/>
  <rect id="color05" x="480" y="30" width="80" height="80" fill="#b9924a"/>
  <rect id="color13" x="480" y="140" width="80" height="80" fill="#d69d55"/>
  <rect id="color06" x="570" y="30" width="80" height="80" fill="#5d796a"/>
  <rect id="color14" x="570" y="140" width="80" height="80" fill="#668574"/>
  <rect id="color07" x="660" y="30" width="80" height="80" fill="#977d5e"/>
  <rect id="color15" x="660" y="140" width="80" height="80" fill="#ab9c71"/>
</svg>