<svg id="previews" width="770" height="250" version="1.1" xmlns="http://www.w3.org/2000/svg">
  <rect id="background" x="-2.5e-7" y="-1.3549e-6" width="770" height="250" fill="#17171c"/>
  <rect id="color00" x="30" y="30" width="80" height="80" fill="#212126"/>
  <rect id="color08" x="30" y="140" width="80" height="80" fill="#3b3b44"/>
  <rect id="color01" x="120" y="30" width="80" height="80" fill="#cc7a7a"/>
  <rect id="color09" x="120" y="140" width="80" height="80" fill="#e88b8b"/>
  <rect id="color02" x="210" y="30" width="80" height="80" fill="#b1cc7a"/>
  <rect id="color10" x="210" y="140" width="80" height="80" fill="#c4e287"/>
  <rect id="color03" x="300" y="30" width="80" height="80" fill="#cca37a"/>
  <rect id="color11" x="300" y="140" width="80" height="80" fill="#ebbc8d"/>
  <rect id="color04" x="390" y="30" width="80" height="80" fill="#7a96cc"/>
  <rect id="color12" x="390" y="140" width="80" height="80" fill="#8babe9"/>
  <rect id="color05" x="480" y="30" width="80" height="80" fill="#b886d1"/>
  <rect id="color13" x="480" y="140" width="80" height="80" fill="#cd95e8"/>
  <rect id="color06" x="570" y="30" width="80" height="80" fill="#7ab1cc"/>
  <rect id="color14" x="570" y="140" width="80" height="80" fill="#85c1df"/>
  <rect id="color07" x="660" y="30" width="80" height="80" fill="#dbcbba"/>
  <rect id="color15" x="660" y="140" width="80" height="80" fill="#f2e0ce"/>
</svg>