<svg id="previews" width="770" height="250" version="1.1" xmlns="http://www.w3.org/2000/svg">
  <rect id="background" x="-2.5e-7" y="-1.3549e-6" width="770" height="250" fill="#050203"/>
  <rect id="color00" x="30" y="30" width="80" height="80" fill="#11080b"/>
  <rect id="color08" x="30" y="140" width="80" height="80" fill="#311d23"/>
  <rect id="color01" x="120" y="30" width="80" height="80" fill="#9b4657"/>
  <rect id="color09" x="120" y="140" width="80" height="80" fill="#b05c6d"/>
  <rect id="color02" x="210" y="30" width="80" height="80" fill="#ac4e61"/>
  <rect id="color10" x="210" y="140" width="80" height="80" fill="#b96677"/>
  <rect id="color03" x="300" y="30" width="80" height="80" fill="#b65d6f"/>
  <rect id="color11" x="300" y="140" width="80" height="80" fill="#c47686"/>
  <rect id="color04" x="390" y="30" width="80" height="80" fill="#be6f7f"/>
  <rect id="color12" x="390" y="140" width="80" height="80" fill="#d6909e"/>
  <rect id="color05" x="480" y="30" width="80" height="80" fill="#c6818f"/>
  <rect id="color13" x="480" y="140" width="80" height="80" fill="#da9ba8"/>
  <rect id="color06" x="570" y="30" width="80" height="80" fill="#ce929e"/>
  <rect id="color14" x="570" y="140" width="80" height="80" fill="#e0b1ba"/>
  <rect id="color07" x="660" y="30" width="80" height="80" fill="#d6a4ae"/>
  <rect id="color15" x="660" y="140" width="80" height="80" fill="#edd4d9"/>
</svg>