<svg id="previews" width="770" height="250" version="1.1" xmlns="http://www.w3.org/2000/svg">
  <rect id="background" x="-2.5e-7" y="-1.3549e-6" width="770" height="250" fill="#08131a"/>
  <rect id="color00" x="30" y="30" width="80" height="80" fill="#17384c"/>
  <rect id="color08" x="30" y="140" width="80" height="80" fill="#d15023"/>
  <rect id="color01" x="120" y="30" width="80" height="80" fill="#027c9b"/>
  <rect id="color09" x="120" y="140" width="80" height="80" fill="#fca02f"/>
  <rect id="color02" x="210" y="30" width="80" height="80" fill="#1e4950"/>
  <rect id="color10" x="210" y="140" width="80" height="80" fill="#68d3f1"/>
  <rect id="color03" x="300" y="30" width="80" height="80" fill="#50a3b5"/>
  <rect id="color11" x="300" y="140" width="80" height="80" fill="#deb88d"/>
  <rect id="color04" x="390" y="30" width="80" height="80" fill="#424b52"/>
  <rect id="color12" x="390" y="140" width="80" height="80" fill="#d38677"/>
  <rect id="color05" x="480" y="30" width="80" height="80" fill="#618c98"/>
  <rect id="color13" x="480" y="140" width="80" height="80" fill="#fdd29e"/>
  <rect id="color06" x="570" y="30" width="80" height="80" fill="#1bbcdd"/>
  <rect id="color14" x="570" y="140" width="80" height="80" fill="#bbe3ee"/>
  <rect id="color07" x="660" y="30" width="80" height="80" fill="#86abb3"/>
  <rect id="color15" x="660" y="140" width="80" height="80" fill="#fee3cd"/>
</svg>