<svg id="previews" width="770" height="250" version="1.1" xmlns="http://www.w3.org/2000/svg">
  <rect id="background" x="-2.5e-7" y="-1.3549e-6" width="770" height="250" fill="#061115"/>
  <rect id="color00" x="30" y="30" width="80" height="80" fill="#1c252c"/>
  <rect id="color08" x="30" y="140" width="80" height="80" fill="#484e5b"/>
  <rect id="color01" x="120" y="30" width="80" height="80" fill="#df5b61"/>
  <rect id="color09" x="120" y="140" width="80" height="80" fill="#f16269"/>
  <rect id="color02" x="210" y="30" width="80" height="80" fill="#78b892"/>
  <rect id="color10" x="210" y="140" width="80" height="80" fill="#8cd7aa"/>
  <rect id="color03" x="300" y="30" width="80" height="80" fill="#de8f78"/>
  <rect id="color11" x="300" y="140" width="80" height="80" fill="#e9967e"/>
  <rect id="color04" x="390" y="30" width="80" height="80" fill="#6791c9"/>
  <rect id="color12" x="390" y="140" width="80" height="80" fill="#79aaeb"/>
  <rect id="color05" x="480" y="30" width="80" height="80" fill="#bc83e3"/>
  <rect id="color13" x="480" y="140" width="80" height="80" fill="#c488ec"/>
  <rect id="color06" x="570" y="30" width="80" height="80" fill="#67afc1"/>
  <rect id="color14" x="570" y="140" width="80" height="80" fill="#7acfe4"/>
  <rect id="color07" x="660" y="30" width="80" height="80" fill="#d9d7d6"/>
  <rect id="color15" x="660" y="140" width="80" height="80" fill="#e5e5e5"/>
</svg>