<svg id="previews" width="770" height="250" version="1.1" xmlns="http://www.w3.org/2000/svg">
  <rect id="background" x="-2.5e-7" y="-1.3549e-6" width="770" height="250" fill="#fbf3db"/>
  <rect id="color00" x="30" y="30" width="80" height="80" fill="#e9e4d0"/>
  <rect id="color08" x="30" y="140" width="80" height="80" fill="#cfcebe"/>
  <rect id="color01" x="120" y="30" width="80" height="80" fill="#d2212d"/>
  <rect id="color09" x="120" y="140" width="80" height="80" fill="#cc1729"/>
  <rect id="color02" x="210" y="30" width="80" height="80" fill="#489100"/>
  <rect id="color10" x="210" y="140" width="80" height="80" fill="#428b00"/>
  <rect id="color03" x="300" y="30" width="80" height="80" fill="#ad8900"/>
  <rect id="color11" x="300" y="140" width="80" height="80" fill="#a78300"/>
  <rect id="color04" x="390" y="30" width="80" height="80" fill="#0072d4"/>
  <rect id="color12" x="390" y="140" width="80" height="80" fill="#006dce"/>
  <rect id="color05" x="480" y="30" width="80" height="80" fill="#ca4898"/>
  <rect id="color13" x="480" y="140" width="80" height="80" fill="#c44392"/>
  <rect id="color06" x="570" y="30" width="80" height="80" fill="#009c8f"/>
  <rect id="color14" x="570" y="140" width="80" height="80" fill="#00978a"/>
  <rect id="color07" x="660" y="30" width="80" height="80" fill="#909995"/>
  <rect id="color15" x="660" y="140" width="80" height="80" fill="#3a4d53"/>
</svg>