<svg id="previews" width="770" height="250" version="1.1" xmlns="http://www.w3.org/2000/svg">
  <rect id="background" x="-2.5e-7" y="-1.3549e-6" width="770" height="250" fill="#103c48"/>
  <rect id="color00" x="30" y="30" width="80" height="80" fill="#174956"/>
  <rect id="color08" x="30" y="140" width="80" height="80" fill="#325b66"/>
  <rect id="color01" x="120" y="30" width="80" height="80" fill="#fa5750"/>
  <rect id="color09" x="120" y="140" width="80" height="80" fill="#ff665c"/>
  <rect id="color02" x="210" y="30" width="80" height="80" fill="#75b938"/>
  <rect id="color10" x="210" y="140" width="80" height="80" fill="#84c747"/>
  <rect id="color03" x="300" y="30" width="80" height="80" fill="#dbb32d"/>
  <rect id="color11" x="300" y="140" width="80" height="80" fill="#ebc13d"/>
  <rect id="color04" x="390" y="30" width="80" height="80" fill="#4695f7"/>
  <rect id="color12" x="390" y="140" width="80" height="80" fill="#58a3ff"/>
  <rect id="color05" x="480" y="30" width="80" height="80" fill="#f275be"/>
  <rect id="color13" x="480" y="140" width="80" height="80" fill="#ff84cd"/>
  <rect id="color06" x="570" y="30" width="80" height="80" fill="#41c7b9"/>
  <rect id="color14" x="570" y="140" width="80" height="80" fill="#53d6c7"/>
  <rect id="color07" x="660" y="30" width="80" height="80" fill="#72898f"/>
  <rect id="color15" x="660" y="140" width="80" height="80" fill="#cad8d9"/>
</svg>