<svg id="previews" width="770" height="250" version="1.1" xmlns="http://www.w3.org/2000/svg">
  <rect id="background" x="-2.5e-7" y="-1.3549e-6" width="770" height="250" fill="#181818"/>
  <rect id="color00" x="30" y="30" width="80" height="80" fill="#252525"/>
  <rect id="color08" x="30" y="140" width="80" height="80" fill="#3b3b3b"/>
  <rect id="color01" x="120" y="30" width="80" height="80" fill="#ed4a46"/>
  <rect id="color09" x="120" y="140" width="80" height="80" fill="#ff5e56"/>
  <rect id="color02" x="210" y="30" width="80" height="80" fill="#70b433"/>
  <rect id="color10" x="210" y="140" width="80" height="80" fill="#83c746"/>
  <rect id="color03" x="300" y="30" width="80" height="80" fill="#dbb32d"/>
  <rect id="color11" x="300" y="140" width="80" height="80" fill="#efc541"/>
  <rect id="color04" x="390" y="30" width="80" height="80" fill="#368aeb"/>
  <rect id="color12" x="390" y="140" width="80" height="80" fill="#4f9cfe"/>
  <rect id="color05" x="480" y="30" width="80" height="80" fill="#eb6eb7"/>
  <rect id="color13" x="480" y="140" width="80" height="80" fill="#ff81ca"/>
  <rect id="color06" x="570" y="30" width="80" height="80" fill="#3fc5b7"/>
  <rect id="color14" x="570" y="140" width="80" height="80" fill="#56d8c9"/>
  <rect id="color07" x="660" y="30" width="80" height="80" fill="#777777"/>
  <rect id="color15" x="660" y="140" width="80" height="80" fill="#dedede"/>
</svg>