<svg id="previews" width="770" height="250" version="1.1" xmlns="http://www.w3.org/2000/svg">
  <rect id="background" x="-2.5e-7" y="-1.3549e-6" width="770" height="250" fill="#fcfcfd"/>
  <rect id="color00" x="30" y="30" width="80" height="80" fill="#818181"/>
  <rect id="color08" x="30" y="140" width="80" height="80" fill="#a0a0a0"/>
  <rect id="color01" x="120" y="30" width="80" height="80" fill="#f5807a"/>
  <rect id="color09" x="120" y="140" width="80" height="80" fill="#f8b3b6"/>
  <rect id="color02" x="210" y="30" width="80" height="80" fill="#95e6b0"/>
  <rect id="color10" x="210" y="140" width="80" height="80" fill="#bfe6cc"/>
  <rect id="color03" x="300" y="30" width="80" height="80" fill="#dc966c"/>
  <rect id="color11" x="300" y="140" width="80" height="80" fill="#dcae92"/>
  <rect id="color04" x="390" y="30" width="80" height="80" fill="#95e1ff"/>
  <rect id="color12" x="390" y="140" width="80" height="80" fill="#a8e6ff"/>
  <rect id="color05" x="480" y="30" width="80" height="80" fill="#bc6572"/>
  <rect id="color13" x="480" y="140" width="80" height="80" fill="#bc8a92"/>
  <rect id="color06" x="570" y="30" width="80" height="80" fill="#cca2fb"/>
  <rect id="color14" x="570" y="140" width="80" height="80" fill="#d8b9fb"/>
  <rect id="color07" x="660" y="30" width="80" height="80" fill="#a9afc7"/>
  <rect id="color15" x="660" y="140" width="80" height="80" fill="#ecf0fe"/>
</svg>