<svg id="previews" width="770" height="250" version="1.1" xmlns="http://www.w3.org/2000/svg">
  <rect id="background" x="-2.5e-7" y="-1.3549e-6" width="770" height="250" fill="#fdf6e3"/>
  <rect id="color00" x="30" y="30" width="80" height="80" fill="#073642"/>
  <rect id="color08" x="30" y="140" width="80" height="80" fill="#002b36"/>
  <rect id="color01" x="120" y="30" width="80" height="80" fill="#dc322f"/>
  <rect id="color09" x="120" y="140" width="80" height="80" fill="#cb4b16"/>
  <rect id="color02" x="210" y="30" width="80" height="80" fill="#859900"/>
  <rect id="color10" x="210" y="140" width="80" height="80" fill="#586e75"/>
  <rect id="color03" x="300" y="30" width="80" height="80" fill="#b58900"/>
  <rect id="color11" x="300" y="140" width="80" height="80" fill="#657b83"/>
  <rect id="color04" x="390" y="30" width="80" height="80" fill="#268bd2"/>
  <rect id="color12" x="390" y="140" width="80" height="80" fill="#839496"/>
  <rect id="color05" x="480" y="30" width="80" height="80" fill="#d33682"/>
  <rect id="color13" x="480" y="140" width="80" height="80" fill="#6c71c4"/>
  <rect id="color06" x="570" y="30" width="80" height="80" fill="#2aa198"/>
  <rect id="color14" x="570" y="140" width="80" height="80" fill="#93a1a1"/>
  <rect id="color07" x="660" y="30" width="80" height="80" fill="#eee8d5"/>
  <rect id="color15" x="660" y="140" width="80" height="80" fill="#fdf6e3"/>
</svg>