<svg id="previews" width="770" height="250" version="1.1" xmlns="http://www.w3.org/2000/svg">
  <rect id="background" x="-2.5e-7" y="-1.3549e-6" width="770" height="250" fill="#001e27"/>
  <rect id="color00" x="30" y="30" width="80" height="80" fill="#002831"/>
  <rect id="color08" x="30" y="140" width="80" height="80" fill="#006488"/>
  <rect id="color01" x="120" y="30" width="80" height="80" fill="#d11c24"/>
  <rect id="color09" x="120" y="140" width="80" height="80" fill="#f5163b"/>
  <rect id="color02" x="210" y="30" width="80" height="80" fill="#6cbe6c"/>
  <rect id="color10" x="210" y="140" width="80" height="80" fill="#51ef84"/>
  <rect id="color03" x="300" y="30" width="80" height="80" fill="#a57706"/>
  <rect id="color11" x="300" y="140" width="80" height="80" fill="#b27e28"/>
  <rect id="color04" x="390" y="30" width="80" height="80" fill="#2176c7"/>
  <rect id="color12" x="390" y="140" width="80" height="80" fill="#178ec8"/>
  <rect id="color05" x="480" y="30" width="80" height="80" fill="#c61c6f"/>
  <rect id="color13" x="480" y="140" width="80" height="80" fill="#e24d8e"/>
  <rect id="color06" x="570" y="30" width="80" height="80" fill="#259286"/>
  <rect id="color14" x="570" y="140" width="80" height="80" fill="#00b39e"/>
  <rect id="color07" x="660" y="30" width="80" height="80" fill="#eae3cb"/>
  <rect id="color15" x="660" y="140" width="80" height="80" fill="#fcf4dc"/>
</svg>