<svg id="previews" width="770" height="250" version="1.1" xmlns="http://www.w3.org/2000/svg">
  <rect id="background" x="-2.5e-7" y="-1.3549e-6" width="770" height="250" fill="#1c1e3d"/>
  <rect id="color00" x="30" y="30" width="80" height="80" fill="#1a2d50"/>
  <rect id="color08" x="30" y="140" width="80" height="80" fill="#3e5175"/>
  <rect id="color01" x="120" y="30" width="80" height="80" fill="#8d4452"/>
  <rect id="color09" x="120" y="140" width="80" height="80" fill="#9f5d6a"/>
  <rect id="color02" x="210" y="30" width="80" height="80" fill="#366379"/>
  <rect id="color10" x="210" y="140" width="80" height="80" fill="#5894b0"/>
  <rect id="color03" x="300" y="30" width="80" height="80" fill="#c98568"/>
  <rect id="color11" x="300" y="140" width="80" height="80" fill="#da9f85"/>
  <rect id="color04" x="390" y="30" width="80" height="80" fill="#0e4078"/>
  <rect id="color12" x="390" y="140" width="80" height="80" fill="#3978bd"/>
  <rect id="color05" x="480" y="30" width="80" height="80" fill="#584c84"/>
  <rect id="color13" x="480" y="140" width="80" height="80" fill="#6e5cb0"/>
  <rect id="color06" x="570" y="30" width="80" height="80" fill="#2e6861"/>
  <rect id="color14" x="570" y="140" width="80" height="80" fill="#51a097"/>
  <rect id="color07" x="660" y="30" width="80" height="80" fill="#8a9692"/>
  <rect id="color15" x="660" y="140" width="80" height="80" fill="#dce4e2"/>
</svg>