<svg id="previews" width="770" height="250" version="1.1" xmlns="http://www.w3.org/2000/svg">
  <rect id="background" x="-2.5e-7" y="-1.3549e-6" width="770" height="250" fill="#262f33"/>
  <rect id="color00" x="30" y="30" width="80" height="80" fill="#273034"/>
  <rect id="color08" x="30" y="140" width="80" height="80" fill="#3b4347"/>
  <rect id="color01" x="120" y="30" width="80" height="80" fill="#6f4443"/>
  <rect id="color09" x="120" y="140" width="80" height="80" fill="#6f4443"/>
  <rect id="color02" x="210" y="30" width="80" height="80" fill="#5c6a60"/>
  <rect id="color10" x="210" y="140" width="80" height="80" fill="#5c6a60"/>
  <rect id="color03" x="300" y="30" width="80" height="80" fill="#aaa169"/>
  <rect id="color11" x="300" y="140" width="80" height="80" fill="#aaa169"/>
  <rect id="color04" x="390" y="30" width="80" height="80" fill="#1a5568"/>
  <rect id="color12" x="390" y="140" width="80" height="80" fill="#1a5568"/>
  <rect id="color05" x="480" y="30" width="80" height="80" fill="#74636a"/>
  <rect id="color13" x="480" y="140" width="80" height="80" fill="#74636a"/>
  <rect id="color06" x="570" y="30" width="80" height="80" fill="#43686a"/>
  <rect id="color14" x="570" y="140" width="80" height="80" fill="#43686a"/>
  <rect id="color07" x="660" y="30" width="80" height="80" fill="#bcbda3"/>
  <rect id="color15" x="660" y="140" width="80" height="80" fill="#bcbda3"/>
</svg>