<svg id="previews" width="770" height="250" version="1.1" xmlns="http://www.w3.org/2000/svg">
  <rect id="background" x="-2.5e-7" y="-1.3549e-6" width="770" height="250" fill="#1c1b19"/>
  <rect id="color00" x="30" y="30" width="80" height="80" fill="#292825"/>
  <rect id="color08" x="30" y="140" width="80" height="80" fill="#918175"/>
  <rect id="color01" x="120" y="30" width="80" height="80" fill="#ef2f27"/>
  <rect id="color09" x="120" y="140" width="80" height="80" fill="#f75341"/>
  <rect id="color02" x="210" y="30" width="80" height="80" fill="#519f50"/>
  <rect id="color10" x="210" y="140" width="80" height="80" fill="#98bc37"/>
  <rect id="color03" x="300" y="30" width="80" height="80" fill="#fbb829"/>
  <rect id="color11" x="300" y="140" width="80" height="80" fill="#fed06e"/>
  <rect id="color04" x="390" y="30" width="80" height="80" fill="#2c78bf"/>
  <rect id="color12" x="390" y="140" width="80" height="80" fill="#68a8e4"/>
  <rect id="color05" x="480" y="30" width="80" height="80" fill="#e02c6d"/>
  <rect id="color13" x="480" y="140" width="80" height="80" fill="#ff5c8f"/>
  <rect id="color06" x="570" y="30" width="80" height="80" fill="#0aaeb3"/>
  <rect id="color14" x="570" y="140" width="80" height="80" fill="#53fde9"/>
  <rect id="color07" x="660" y="30" width="80" height="80" fill="#d0bfa1"/>
  <rect id="color15" x="660" y="140" width="80" height="80" fill="#fce8c3"/>
</svg>