<svg id="previews" width="770" height="250" version="1.1" xmlns="http://www.w3.org/2000/svg">
  <rect id="background" x="-2.5e-7" y="-1.3549e-6" width="770" height="250" fill="#121212"/>
  <rect id="color00" x="30" y="30" width="80" height="80" fill="#1d1d1d"/>
  <rect id="color08" x="30" y="140" width="80" height="80" fill="#434343"/>
  <rect id="color01" x="120" y="30" width="80" height="80" fill="#ff4181"/>
  <rect id="color09" x="120" y="140" width="80" height="80" fill="#ff78a5"/>
  <rect id="color02" x="210" y="30" width="80" height="80" fill="#b2ff59"/>
  <rect id="color10" x="210" y="140" width="80" height="80" fill="#d5ffa5"/>
  <rect id="color03" x="300" y="30" width="80" height="80" fill="#fbe739"/>
  <rect id="color11" x="300" y="140" width="80" height="80" fill="#fbf2a6"/>
  <rect id="color04" x="390" y="30" width="80" height="80" fill="#006776"/>
  <rect id="color12" x="390" y="140" width="80" height="80" fill="#467076"/>
  <rect id="color05" x="480" y="30" width="80" height="80" fill="#c38fff"/>
  <rect id="color13" x="480" y="140" width="80" height="80" fill="#d6b3ff"/>
  <rect id="color06" x="570" y="30" width="80" height="80" fill="#03dac6"/>
  <rect id="color14" x="570" y="140" width="80" height="80" fill="#79dad1"/>
  <rect id="color07" x="660" y="30" width="80" height="80" fill="#a5a5a5"/>
  <rect id="color15" x="660" y="140" width="80" height="80" fill="#ffffff"/>
</svg>