<svg id="previews" width="770" height="250" version="1.1" xmlns="http://www.w3.org/2000/svg">
  <rect id="background" x="-2.5e-7" y="-1.3549e-6" width="770" height="250" fill="#201f1d"/>
  <rect id="color00" x="30" y="30" width="80" height="80" fill="#302c23"/>
  <rect id="color08" x="30" y="140" width="80" height="80" fill="#403a2e"/>
  <rect id="color01" x="120" y="30" width="80" height="80" fill="#a73e28"/>
  <rect id="color09" x="120" y="140" width="80" height="80" fill="#85311e"/>
  <rect id="color02" x="210" y="30" width="80" height="80" fill="#878438"/>
  <rect id="color10" x="210" y="140" width="80" height="80" fill="#62712c"/>
  <rect id="color03" x="300" y="30" width="80" height="80" fill="#c4905e"/>
  <rect id="color11" x="300" y="140" width="80" height="80" fill="#c4a63b"/>
  <rect id="color04" x="390" y="30" width="80" height="80" fill="#3d444e"/>
  <rect id="color12" x="390" y="140" width="80" height="80" fill="#757a80"/>
  <rect id="color05" x="480" y="30" width="80" height="80" fill="#533f48"/>
  <rect id="color13" x="480" y="140" width="80" height="80" fill="#835c6e"/>
  <rect id="color06" x="570" y="30" width="80" height="80" fill="#9d534a"/>
  <rect id="color14" x="570" y="140" width="80" height="80" fill="#6a3d38"/>
  <rect id="color07" x="660" y="30" width="80" height="80" fill="#eddec9"/>
  <rect id="color15" x="660" y="140" width="80" height="80" fill="#fafafa"/>
</svg>