<svg id="previews" width="770" height="250" version="1.1" xmlns="http://www.w3.org/2000/svg">
  <rect id="background" x="-2.5e-7" y="-1.3549e-6" width="770" height="250" fill="#121417"/>
  <rect id="color00" x="30" y="30" width="80" height="80" fill="#16181d"/>
  <rect id="color08" x="30" y="140" width="80" height="80" fill="#2d2f33"/>
  <rect id="color01" x="120" y="30" width="80" height="80" fill="#a51e3a"/>
  <rect id="color09" x="120" y="140" width="80" height="80" fill="#bd3e58"/>
  <rect id="color02" x="210" y="30" width="80" height="80" fill="#ad9323"/>
  <rect id="color10" x="210" y="140" width="80" height="80" fill="#cfb43d"/>
  <rect id="color03" x="300" y="30" width="80" height="80" fill="#a7551c"/>
  <rect id="color11" x="300" y="140" width="80" height="80" fill="#c2723c"/>
  <rect id="color04" x="390" y="30" width="80" height="80" fill="#2972b2"/>
  <rect id="color12" x="390" y="140" width="80" height="80" fill="#4090c5"/>
  <rect id="color05" x="480" y="30" width="80" height="80" fill="#a32f74"/>
  <rect id="color13" x="480" y="140" width="80" height="80" fill="#cd4c99"/>
  <rect id="color06" x="570" y="30" width="80" height="80" fill="#1bb071"/>
  <rect id="color14" x="570" y="140" width="80" height="80" fill="#49d198"/>
  <rect id="color07" x="660" y="30" width="80" height="80" fill="#c5af86"/>
  <rect id="color15" x="660" y="140" width="80" height="80" fill="#ffffff"/>
</svg>