<svg id="previews" width="770" height="250" version="1.1" xmlns="http://www.w3.org/2000/svg">
  <rect id="background" x="-2.5e-7" y="-1.3549e-6" width="770" height="250" fill="#1b1d1e"/>
  <rect id="color00" x="30" y="30" width="80" height="80" fill="#1b1d1e"/>
  <rect id="color08" x="30" y="140" width="80" height="80" fill="#505354"/>
  <rect id="color01" x="120" y="30" width="80" height="80" fill="#f92672"/>
  <rect id="color09" x="120" y="140" width="80" height="80" fill="#ff5995"/>
  <rect id="color02" x="210" y="30" width="80" height="80" fill="#82b414"/>
  <rect id="color10" x="210" y="140" width="80" height="80" fill="#b6e354"/>
  <rect id="color03" x="300" y="30" width="80" height="80" fill="#fd971f"/>
  <rect id="color11" x="300" y="140" width="80" height="80" fill="#feed6c"/>
  <rect id="color04" x="390" y="30" width="80" height="80" fill="#56c2d6"/>
  <rect id="color12" x="390" y="140" width="80" height="80" fill="#8cedff"/>
  <rect id="color05" x="480" y="30" width="80" height="80" fill="#8c54fe"/>
  <rect id="color13" x="480" y="140" width="80" height="80" fill="#9e6ffe"/>
  <rect id="color06" x="570" y="30" width="80" height="80" fill="#465457"/>
  <rect id="color14" x="570" y="140" width="80" height="80" fill="#899ca1"/>
  <rect id="color07" x="660" y="30" width="80" height="80" fill="#ccccc6"/>
  <rect id="color15" x="660" y="140" width="80" height="80" fill="#f8f8f2"/>
</svg>