<svg id="previews" width="770" height="250" version="1.1" xmlns="http://www.w3.org/2000/svg">
  <rect id="background" x="-2.5e-7" y="-1.3549e-6" width="770" height="250" fill="#1b2031"/>
  <rect id="color00" x="30" y="30" width="80" height="80" fill="#414868"/>
  <rect id="color08" x="30" y="140" width="80" height="80" fill="#414868"/>
  <rect id="color01" x="120" y="30" width="80" height="80" fill="#f7768e"/>
  <rect id="color09" x="120" y="140" width="80" height="80" fill="#f7768e"/>
  <rect id="color02" x="210" y="30" width="80" height="80" fill="#41b59b"/>
  <rect id="color10" x="210" y="140" width="80" height="80" fill="#41b59c"/>
  <rect id="color03" x="300" y="30" width="80" height="80" fill="#e0af68"/>
  <rect id="color11" x="300" y="140" width="80" height="80" fill="#e0af68"/>
  <rect id="color04" x="390" y="30" width="80" height="80" fill="#7ba2f3"/>
  <rect id="color12" x="390" y="140" width="80" height="80" fill="#7ba2f3"/>
  <rect id="color05" x="480" y="30" width="80" height="80" fill="#bb9af7"/>
  <rect id="color13" x="480" y="140" width="80" height="80" fill="#bb9af7"/>
  <rect id="color06" x="570" y="30" width="80" height="80" fill="#2ccee9"/>
  <rect id="color14" x="570" y="140" width="80" height="80" fill="#2ac4df"/>
  <rect id="color07" x="660" y="30" width="80" height="80" fill="#c0caf5"/>
  <rect id="color15" x="660" y="140" width="80" height="80" fill="#c0caf5"/>
</svg>