<svg id="previews" width="770" height="250" version="1.1" xmlns="http://www.w3.org/2000/svg">
  <rect id="background" x="-2.5e-7" y="-1.3549e-6" width="770" height="250" fill="#100c0c"/>
  <rect id="color00" x="30" y="30" width="80" height="80" fill="#161010"/>
  <rect id="color08" x="30" y="140" width="80" height="80" fill="#4a3838"/>
  <rect id="color01" x="120" y="30" width="80" height="80" fill="#882e2e"/>
  <rect id="color09" x="120" y="140" width="80" height="80" fill="#ae3b3b"/>
  <rect id="color02" x="210" y="30" width="80" height="80" fill="#75882e"/>
  <rect id="color10" x="210" y="140" width="80" height="80" fill="#96ae3b"/>
  <rect id="color03" x="300" y="30" width="80" height="80" fill="#d28221"/>
  <rect id="color11" x="300" y="140" width="80" height="80" fill="#e29b44"/>
  <rect id="color04" x="390" y="30" width="80" height="80" fill="#2e5788"/>
  <rect id="color12" x="390" y="140" width="80" height="80" fill="#3b6fae"/>
  <rect id="color05" x="480" y="30" width="80" height="80" fill="#882e48"/>
  <rect id="color13" x="480" y="140" width="80" height="80" fill="#ae3b5c"/>
  <rect id="color06" x="570" y="30" width="80" height="80" fill="#3b8283"/>
  <rect id="color14" x="570" y="140" width="80" height="80" fill="#4ba5a6"/>
  <rect id="color07" x="660" y="30" width="80" height="80" fill="#d7c793"/>
  <rect id="color15" x="660" y="140" width="80" height="80" fill="#faf7f0"/>
</svg>