<svg id="previews" width="770" height="250" version="1.1" xmlns="http://www.w3.org/2000/svg">
  <rect id="background" x="-2.5e-7" y="-1.3549e-6" width="770" height="250" fill="#242424"/>
  <rect id="color00" x="30" y="30" width="80" height="80" fill="#333333"/>
  <rect id="color08" x="30" y="140" width="80" height="80" fill="#666666"/>
  <rect id="color01" x="120" y="30" width="80" height="80" fill="#ed5f5d"/>
  <rect id="color09" x="120" y="140" width="80" height="80" fill="#f28c8b"/>
  <rect id="color02" x="210" y="30" width="80" height="80" fill="#79b757"/>
  <rect id="color10" x="210" y="140" width="80" height="80" fill="#95c67b"/>
  <rect id="color03" x="300" y="30" width="80" height="80" fill="#e9873a"/>
  <rect id="color11" x="300" y="140" width="80" height="80" fill="#eea368"/>
  <rect id="color04" x="390" y="30" width="80" height="80" fill="#2e7cf7"/>
  <rect id="color12" x="390" y="140" width="80" height="80" fill="#5f9bf9"/>
  <rect id="color05" x="480" y="30" width="80" height="80" fill="#e55e9c"/>
  <rect id="color13" x="480" y="140" width="80" height="80" fill="#ec8ab7"/>
  <rect id="color06" x="570" y="30" width="80" height="80" fill="#53cfc9"/>
  <rect id="color14" x="570" y="140" width="80" height="80" fill="#7bdad6"/>
  <rect id="color07" x="660" y="30" width="80" height="80" fill="#8c8c8c"/>
  <rect id="color15" x="660" y="140" width="80" height="80" fill="#ffffff"/>
</svg>