<svg id="previews" width="770" height="250" version="1.1" xmlns="http://www.w3.org/2000/svg">
  <rect id="background" x="-2.5e-7" y="-1.3549e-6" width="770" height="250" fill="#0c0e0f"/>
  <rect id="color00" x="30" y="30" width="80" height="80" fill="#232526"/>
  <rect id="color08" x="30" y="140" width="80" height="80" fill="#2c2e2f"/>
  <rect id="color01" x="120" y="30" width="80" height="80" fill="#df5b61"/>
  <rect id="color09" x="120" y="140" width="80" height="80" fill="#e8646a"/>
  <rect id="color02" x="210" y="30" width="80" height="80" fill="#78b892"/>
  <rect id="color10" x="210" y="140" width="80" height="80" fill="#81c19b"/>
  <rect id="color03" x="300" y="30" width="80" height="80" fill="#de8f78"/>
  <rect id="color11" x="300" y="140" width="80" height="80" fill="#e79881"/>
  <rect id="color04" x="390" y="30" width="80" height="80" fill="#6791c9"/>
  <rect id="color12" x="390" y="140" width="80" height="80" fill="#709ad2"/>
  <rect id="color05" x="480" y="30" width="80" height="80" fill="#bc83e3"/>
  <rect id="color13" x="480" y="140" width="80" height="80" fill="#c58cec"/>
  <rect id="color06" x="570" y="30" width="80" height="80" fill="#67afc1"/>
  <rect id="color14" x="570" y="140" width="80" height="80" fill="#70b8ca"/>
  <rect id="color07" x="660" y="30" width="80" height="80" fill="#e4e6e7"/>
  <rect id="color15" x="660" y="140" width="80" height="80" fill="#f2f4f5"/>
</svg>