<svg id="previews" width="770" height="250" version="1.1" xmlns="http://www.w3.org/2000/svg">
  <rect id="background" x="-2.5e-7" y="-1.3549e-6" width="770" height="250" fill="#080b0f"/>
  <rect id="color00" x="30" y="30" width="80" height="80" fill="#161f28"/>
  <rect id="color08" x="30" y="140" width="80" height="80" fill="#303d4b"/>
  <rect id="color01" x="120" y="30" width="80" height="80" fill="#b34f63"/>
  <rect id="color09" x="120" y="140" width="80" height="80" fill="#f4718c"/>
  <rect id="color02" x="210" y="30" width="80" height="80" fill="#3e5266"/>
  <rect id="color10" x="210" y="140" width="80" height="80" fill="#7097ba"/>
  <rect id="color03" x="300" y="30" width="80" height="80" fill="#4d6982"/>
  <rect id="color11" x="300" y="140" width="80" height="80" fill="#598ab8"/>
  <rect id="color04" x="390" y="30" width="80" height="80" fill="#567ca4"/>
  <rect id="color12" x="390" y="140" width="80" height="80" fill="#8dabc8"/>
  <rect id="color05" x="480" y="30" width="80" height="80" fill="#4c607d"/>
  <rect id="color13" x="480" y="140" width="80" height="80" fill="#53769d"/>
  <rect id="color06" x="570" y="30" width="80" height="80" fill="#a9bdd5"/>
  <rect id="color14" x="570" y="140" width="80" height="80" fill="#8093aa"/>
  <rect id="color07" x="660" y="30" width="80" height="80" fill="#dde3eb"/>
  <rect id="color15" x="660" y="140" width="80" height="80" fill="#dde3eb"/>
</svg>