<svg id="previews" width="770" height="250" version="1.1" xmlns="http://www.w3.org/2000/svg">
  <rect id="background" x="-2.5e-7" y="-1.3549e-6" width="770" height="250" fill="#0a1032"/>
  <rect id="color00" x="30" y="30" width="80" height="80" fill="#121e5c"/>
  <rect id="color08" x="30" y="140" width="80" height="80" fill="#2439b1"/>
  <rect id="color01" x="120" y="30" width="80" height="80" fill="#d20d38"/>
  <rect id="color09" x="120" y="140" width="80" height="80" fill="#f86f8d"/>
  <rect id="color02" x="210" y="30" width="80" height="80" fill="#67bb0b"/>
  <rect id="color10" x="210" y="140" width="80" height="80" fill="#a4e064"/>
  <rect id="color03" x="300" y="30" width="80" height="80" fill="#e96800"/>
  <rect id="color11" x="300" y="140" width="80" height="80" fill="#ffa94c"/>
  <rect id="color04" x="390" y="30" width="80" height="80" fill="#0090d7"/>
  <rect id="color12" x="390" y="140" width="80" height="80" fill="#58c0f3"/>
  <rect id="color05" x="480" y="30" width="80" height="80" fill="#502fc4"/>
  <rect id="color13" x="480" y="140" width="80" height="80" fill="#9f87f9"/>
  <rect id="color06" x="570" y="30" width="80" height="80" fill="#24d7a8"/>
  <rect id="color14" x="570" y="140" width="80" height="80" fill="#78f7d6"/>
  <rect id="color07" x="660" y="30" width="80" height="80" fill="#454f59"/>
  <rect id="color15" x="660" y="140" width="80" height="80" fill="#f6f7fb"/>
</svg>